<?xml version="1.0" encoding="utf-8"?>
<!-- Generator: Adobe Illustrator 21.1.0, SVG Export Plug-In . SVG Version: 6.00 Build 0)  -->
<svg version="1.1" id="Layer_1" xmlns="http://www.w3.org/2000/svg" xmlns:xlink="http://www.w3.org/1999/xlink" x="0px" y="0px"
	 viewBox="0 0 656 304" style="enable-background:new 0 0 656 304;" xml:space="preserve">
<style type="text/css">
	.st0{fill:#A3DE9F;}
	.st1{fill:#D9FDD7;}
	.st2{fill:none;stroke:#489C41;stroke-width:8;}
	.st3{enable-background:new    ;}
	.st4{fill:#70C26B;}
	.st5{fill:#0A7505;fill-opacity:0.8203;}
</style>
<title>Done</title>
<desc>Created with Sketch.</desc>
<g id="Page-1">
	<g id="Done">
		<path id="Rectangle-3" class="st0" d="M2,0h652l0,0c1.1,0,2,0.9,2,2v302H0V2l0,0C0,0.9,0.9,0,2,0z"/>
		<g id="Rectangle-5" transform="translate(216.000000, 104.000000)">
			<g id="path-1-link">
				<path id="path-1" class="st1" d="M8,0h208c4.4,0,8,3.6,8,8v120c0,4.4-3.6,8-8,8H8c-4.4,0-8-3.6-8-8V8C0,3.6,3.6,0,8,0z"/>
			</g>
			<path id="Rectangle-path" class="st2" d="M8,4h208c2.2,0,4,1.8,4,4v120c0,2.2-1.8,4-4,4H8c-2.2,0-4-1.8-4-4V8C4,5.8,5.8,4,8,4z"
				/>
		</g>
		<g class="st3">
			<path class="st4" d="M357.7,141.4c0,7-1.4,13.2-4.3,18.5c-2.9,5.4-6.4,9.5-10.7,12.3c4.3,2.8,7.9,6.9,10.7,12.3
				s4.3,11.6,4.3,18.5h3.9c0.4,0,0.7,0.1,0.9,0.4c0.2,0.2,0.4,0.5,0.4,0.9v2.6c0,0.4-0.1,0.7-0.4,0.9c-0.2,0.2-0.5,0.4-0.9,0.4
				h-59.1c-0.4,0-0.7-0.1-0.9-0.4c-0.2-0.2-0.4-0.5-0.4-0.9v-2.6c0-0.4,0.1-0.7,0.4-0.9c0.2-0.2,0.5-0.4,0.9-0.4h3.9
				c0-7,1.4-13.2,4.3-18.5s6.4-9.5,10.7-12.3c-4.3-2.8-7.9-6.9-10.7-12.3c-2.9-5.4-4.3-11.6-4.3-18.5h-3.9c-0.4,0-0.7-0.1-0.9-0.4
				c-0.2-0.2-0.4-0.5-0.4-0.9v-2.6c0-0.4,0.1-0.7,0.4-0.9c0.2-0.2,0.5-0.4,0.9-0.4h59.1c0.4,0,0.7,0.1,0.9,0.4
				c0.2,0.2,0.4,0.5,0.4,0.9v2.6c0,0.4-0.1,0.7-0.4,0.9c-0.2,0.2-0.5,0.4-0.9,0.4H357.7z M352.6,141.4h-41.1
				c0,5.5,1.1,10.7,3.4,15.4h34.3C351.4,152.1,352.6,146.9,352.6,141.4z M350.3,190.3c-1.4-3.8-3.4-7-5.8-9.7
				c-2.5-2.7-5.1-4.6-7.8-5.7h-9.2c-2.8,1.1-5.4,3-7.8,5.7c-2.5,2.7-4.4,5.9-5.8,9.7H350.3z"/>
		</g>
		<path id="Combined-Shape" class="st5" d="M316,240h24l6,22h-36L316,240z M304.8,262h46.5c0.4,0,0.8,0.2,0.8,0.5v1
			c0,0.3-0.3,0.5-0.8,0.5h-46.5c-0.4,0-0.8-0.2-0.8-0.5v-1C304,262.2,304.3,262,304.8,262z"/>
	</g>
</g>
</svg>
