<?xml version="1.0" encoding="utf-8"?>
<!-- Generator: Adobe Illustrator 21.1.0, SVG Export Plug-In . SVG Version: 6.00 Build 0)  -->
<svg version="1.1" xmlns="http://www.w3.org/2000/svg" xmlns:xlink="http://www.w3.org/1999/xlink" x="0px" y="0px"
	 viewBox="0 0 656 376" style="enable-background:new 0 0 656 376;" xml:space="preserve">
<style type="text/css">
	.st0{display:none;}
	.st1{display:inline;opacity:0.16;fill:#39B54A;}
	.st2{fill:#F4FAFF;}
	.st3{fill:#E3F5FF;}
	.st4{fill:#FFFFFF;}
	.st5{opacity:8.000000e-02;}
	.st6{opacity:0.48;}
	.st7{fill:#22B573;}
	.st8{fill:#F2F2F2;}
	.st9{fill:#999999;}
	.st10{fill:#29ABE2;}
	.st11{opacity:0.16;}
	.st12{fill:#B3B3B3;}
	.st13{fill:#F0F8F1;}
	.st14{fill:#75C594;}
	.st15{fill:#00A775;}
	.st16{fill:none;}
	.st17{fill:none;stroke:#333333;stroke-width:4;stroke-miterlimit:10;}
	.st18{fill:#46BF5B;stroke:#333333;stroke-width:4;stroke-linejoin:round;stroke-miterlimit:10;}
	.st19{fill:#666666;}
	.st20{fill:#CCCCCC;}
	.st21{opacity:0.56;fill:#333333;}
	.st22{fill:#333333;}
	.st23{fill:#FFFFFF;stroke:#666666;stroke-width:2;stroke-linecap:round;stroke-linejoin:round;stroke-miterlimit:10;}
	.st24{fill:#CCCCCC;stroke:#666666;stroke-width:2;stroke-linecap:round;stroke-linejoin:round;stroke-miterlimit:10;}
	.st25{fill:#009245;}
	.st26{fill:#E9C6B5;}
	.st27{fill:#FFD9C3;}
	.st28{fill:#0071BC;}
	.st29{fill:#534741;}
	.st30{display:inline;opacity:8.000000e-02;fill:#46BF5B;}
	.st31{display:inline;fill:none;}
	.st32{display:inline;fill:#FFCBB0;}
	.st33{display:inline;}
	.st34{fill:#F6B254;}
	.st35{display:inline;fill:#F46F24;}
	.st36{display:inline;fill:#333333;}
</style>
<g id="Layer_2" class="st0">
</g>
<g id="Layer_3">
</g>
<g id="Layer_1">
	<rect x="247.7" y="368.9" class="st5" width="62.2" height="3.1"/>
	<g>
		<rect x="164.3" y="201.9" class="st23" width="327.3" height="168.6"/>
		<polygon class="st23" points="327.9,302.9 164.3,201.9 491.5,201.9 		"/>
	</g>
	<path class="st24" d="M409.7,283.1c7.2,0,13-5.8,13-13h-26C396.7,277.3,402.5,283.1,409.7,283.1z M448.6,250.6c0-6.2,0-32.5,0-32.5
		c0-20-10.6-36.6-29.2-41V173c0-5-3.7-9.4-8.7-9.9c-5.9-0.6-10.8,3.9-10.8,9.7v4.4c-18.6,4.4-29.2,21.1-29.2,41c0,0,0,26.2,0,32.5
		c0,6.2-13,13-13,15.9c0,2.9,0,3.6,0,3.6h103.9c0,0,0-0.2,0-3.6C461.6,263.2,448.6,256.8,448.6,250.6z"/>
	<g>
		<path class="st22" d="M504,376H152c-2.2,0-4-1.8-4-4l0,0c0-2.2,1.8-4,4-4h352c2.2,0,4,1.8,4,4l0,0C508,374.2,506.2,376,504,376z"
			/>
		<path class="st22" d="M136,376h-24c-2.2,0-4-1.8-4-4v0c0-2.2,1.8-4,4-4h24c2.2,0,4,1.8,4,4v0C140,374.2,138.2,376,136,376z"/>
		<path class="st22" d="M544,376h-24c-2.2,0-4-1.8-4-4v0c0-2.2,1.8-4,4-4h24c2.2,0,4,1.8,4,4v0C548,374.2,546.2,376,544,376z"/>
		<path class="st22" d="M96,376h-8c-2.2,0-4-1.8-4-4v0c0-2.2,1.8-4,4-4h8c2.2,0,4,1.8,4,4v0C100,374.2,98.2,376,96,376z"/>
		<path class="st22" d="M568,376h-8c-2.2,0-4-1.8-4-4v0c0-2.2,1.8-4,4-4h8c2.2,0,4,1.8,4,4v0C572,374.2,570.2,376,568,376z"/>
	</g>
	<path class="st19" d="M378.6,171l-5.2-5.2c-1-1-2.7-1.1-3.8-0.2c-13.7,11.3-22.9,27.7-24.6,46.4c-0.2,1.7,1.2,3.1,2.8,3.1h7.4
		c1.5,0,2.7-1.1,2.8-2.5c1.6-15.1,9.2-28.3,20.4-37.3C379.7,174.1,379.8,172.1,378.6,171z"/>
	<path class="st19" d="M464.1,215h7.4c1.7,0,3-1.4,2.8-3.1c-1.7-18.7-10.9-35.1-24.6-46.4c-1.1-0.9-2.8-0.8-3.8,0.2l-5.2,5.2
		c-1.2,1.2-1.1,3.1,0.2,4.2c11.2,9,18.8,22.3,20.4,37.3C461.5,213.9,462.7,215,464.1,215z"/>
</g>
<g id="Layer_6">
</g>
<g id="Layer_4">
</g>
<g id="Layer_7">
</g>
<g id="Layer_5" class="st0">
</g>
</svg>
