<?xml version="1.0" encoding="utf-8"?>
<!-- Generator: Adobe Illustrator 22.1.0, SVG Export Plug-In . SVG Version: 6.00 Build 0)  -->
<svg version="1.1" id="Layer_1" xmlns="http://www.w3.org/2000/svg" xmlns:xlink="http://www.w3.org/1999/xlink" x="0px" y="0px"
	 viewBox="0 0 656 376" style="enable-background:new 0 0 656 376;" xml:space="preserve">
<style type="text/css">
	.st0{display:none;}
	.st1{display:inline;opacity:0.16;fill:#39B54A;enable-background:new    ;}
	.st2{fill:#F4FAFF;}
	.st3{fill:#E3F5FF;}
	.st4{fill:#FFFFFF;}
	.st5{opacity:8.000000e-02;}
	.st6{opacity:0.48;}
	.st7{fill:#22B573;}
	.st8{fill:#F2F2F2;}
	.st9{fill:#999999;}
	.st10{fill:#29ABE2;}
	.st11{opacity:0.16;enable-background:new    ;}
	.st12{opacity:8.000000e-02;enable-background:new    ;}
	.st13{fill:#B3B3B3;}
	.st14{fill:#F0F8F1;}
	.st15{fill:#75C594;}
	.st16{fill:#00A775;}
	.st17{fill:none;}
	.st18{fill:none;stroke:#333333;stroke-width:4;stroke-miterlimit:10;}
	.st19{fill:#46BF5B;stroke:#333333;stroke-width:4;stroke-linejoin:round;stroke-miterlimit:10;}
	.st20{fill:#666666;}
	.st21{fill:#CCCCCC;}
	.st22{opacity:0.56;fill:#333333;enable-background:new    ;}
	.st23{fill:#333333;}
	.st24{fill:#FFFFFF;stroke:#666666;stroke-width:2;stroke-linecap:round;stroke-linejoin:round;stroke-miterlimit:10;}
	.st25{fill:#CCCCCC;stroke:#666666;stroke-width:2;stroke-linecap:round;stroke-linejoin:round;stroke-miterlimit:10;}
	.st26{fill:#333333;stroke:#333333;stroke-width:8;stroke-miterlimit:10;}
	.st27{fill:#009245;}
	.st28{fill:#E9C6B5;}
	.st29{fill:#FFD9C3;}
	.st30{fill:#0071BC;}
	.st31{fill:#534741;}
	.st32{display:inline;opacity:8.000000e-02;fill:#46BF5B;enable-background:new    ;}
	.st33{display:inline;fill:none;}
	.st34{display:inline;fill:#FFCBB0;}
	.st35{display:inline;}
	.st36{fill:#F6B254;}
	.st37{display:inline;fill:#F46F24;}
	.st38{display:inline;fill:#333333;}
</style>
<g id="Layer_1_1_">
	<g>
		<path class="st8" d="M337,317.6c-0.6,0-1-0.4-1-1v-46.8c0-0.6,0.4-1,1-1h161.5c0.6,0,1,0.4,1,1v46.8c0,0.6-0.4,1-1,1H337z"/>
		<path class="st20" d="M498.5,269.8v46.8H337v-46.8H498.5 M498.5,267.8H337c-1.1,0-2,0.9-2,2v46.8c0,1.1,0.9,2,2,2h161.5
			c1.1,0,2-0.9,2-2v-46.8C500.5,268.7,499.6,267.8,498.5,267.8L498.5,267.8z"/>
	</g>
	<circle class="st20" cx="479.8" cy="282.9" r="4.7"/>
	<circle class="st20" cx="465.8" cy="282.9" r="4.7"/>
	<circle class="st21" cx="451.6" cy="282.9" r="4.7"/>
	<g>
		<path class="st8" d="M337,370.7c-0.6,0-1-0.4-1-1v-46.8c0-0.6,0.4-1,1-1h161.5c0.6,0,1,0.4,1,1v46.8c0,0.6-0.4,1-1,1H337z"/>
		<path class="st20" d="M498.5,322.9v46.8H337v-46.8H498.5 M498.5,320.9H337c-1.1,0-2,0.9-2,2v46.8c0,1.1,0.9,2,2,2h161.5
			c1.1,0,2-0.9,2-2v-46.8C500.5,321.8,499.6,320.9,498.5,320.9L498.5,320.9z"/>
	</g>
	<g>
		<rect x="348.4" y="332.7" class="st20" width="6.6" height="27.3"/>
	</g>
	<g>
		<rect x="361.9" y="332.7" class="st20" width="6.6" height="27.3"/>
	</g>
	<g>
		<rect x="375.3" y="332.7" class="st20" width="6.6" height="27.3"/>
	</g>
	<g>
		<rect x="348.4" y="279.6" class="st20" width="6.6" height="27.3"/>
	</g>
	<g>
		<rect x="361.9" y="279.6" class="st20" width="6.6" height="27.3"/>
	</g>
	<g>
		<rect x="375.3" y="279.6" class="st20" width="6.6" height="27.3"/>
	</g>
	<circle class="st20" cx="479.9" cy="336" r="4.7"/>
	<circle class="st20" cx="465.9" cy="336" r="4.7"/>
	<circle class="st21" cx="451.6" cy="336" r="4.7"/>
	<g>
		<path class="st8" d="M337,211.3c-0.6,0-1-0.4-1-1v-46.8c0-0.6,0.4-1,1-1h161.5c0.6,0,1,0.4,1,1v46.8c0,0.6-0.4,1-1,1H337z"/>
		<path class="st20" d="M498.5,163.5v46.8H337v-46.8H498.5 M498.5,161.5H337c-1.1,0-2,0.9-2,2v46.8c0,1.1,0.9,2,2,2h161.5
			c1.1,0,2-0.9,2-2v-46.8C500.5,162.4,499.6,161.5,498.5,161.5L498.5,161.5z"/>
	</g>
	<circle class="st20" cx="479.8" cy="176.6" r="4.7"/>
	<circle class="st20" cx="465.8" cy="176.6" r="4.7"/>
	<circle class="st21" cx="451.6" cy="176.6" r="4.7"/>
	<g>
		<path class="st8" d="M337,264.4c-0.6,0-1-0.4-1-1v-46.8c0-0.6,0.4-1,1-1h161.5c0.6,0,1,0.4,1,1v46.8c0,0.6-0.4,1-1,1H337z"/>
		<path class="st20" d="M498.5,216.6v46.8H337v-46.8H498.5 M498.5,214.6H337c-1.1,0-2,0.9-2,2v46.8c0,1.1,0.9,2,2,2h161.5
			c1.1,0,2-0.9,2-2v-46.8C500.5,215.5,499.6,214.6,498.5,214.6L498.5,214.6z"/>
	</g>
	<g>
		<rect x="348.4" y="226.4" class="st20" width="6.6" height="27.3"/>
	</g>
	<g>
		<rect x="361.9" y="226.4" class="st20" width="6.6" height="27.3"/>
	</g>
	<g>
		<rect x="375.3" y="226.4" class="st20" width="6.6" height="27.3"/>
	</g>
	<g>
		<rect x="348.4" y="173.3" class="st20" width="6.6" height="27.3"/>
	</g>
	<g>
		<rect x="361.9" y="173.3" class="st20" width="6.6" height="27.3"/>
	</g>
	<g>
		<rect x="375.3" y="173.3" class="st20" width="6.6" height="27.3"/>
	</g>
	<circle class="st20" cx="479.9" cy="229.7" r="4.7"/>
	<circle class="st20" cx="465.9" cy="229.7" r="4.7"/>
	<circle class="st21" cx="451.6" cy="229.7" r="4.7"/>
	<g>
		<path class="st8" d="M157.9,211.3c-0.6,0-1-0.4-1-1v-46.8c0-0.6,0.4-1,1-1h161.5c0.6,0,1,0.4,1,1v46.8c0,0.6-0.4,1-1,1H157.9z"/>
		<path class="st20" d="M319.4,163.5v46.8H157.9v-46.8H319.4 M319.4,161.5H157.9c-1.1,0-2,0.9-2,2v46.8c0,1.1,0.9,2,2,2h161.5
			c1.1,0,2-0.9,2-2v-46.8C321.4,162.4,320.5,161.5,319.4,161.5L319.4,161.5z"/>
	</g>
	<circle class="st20" cx="300.6" cy="176.6" r="4.7"/>
	<circle class="st20" cx="286.5" cy="176.6" r="4.7"/>
	<circle class="st21" cx="272.3" cy="176.6" r="4.7"/>
	<g>
		<path class="st8" d="M157.9,264.5c-0.6,0-1-0.4-1-1v-46.8c0-0.6,0.4-1,1-1h161.5c0.6,0,1,0.4,1,1v46.8c0,0.6-0.4,1-1,1H157.9z"/>
		<path class="st20" d="M319.4,216.7v46.8H157.9v-46.8H319.4 M319.4,214.7H157.9c-1.1,0-2,0.9-2,2v46.8c0,1.1,0.9,2,2,2h161.5
			c1.1,0,2-0.9,2-2v-46.8C321.4,215.6,320.5,214.7,319.4,214.7L319.4,214.7z"/>
	</g>
	<circle class="st20" cx="300.7" cy="229.7" r="4.7"/>
	<circle class="st20" cx="286.6" cy="229.7" r="4.7"/>
	<circle class="st21" cx="272.4" cy="229.7" r="4.7"/>
	<g>
		<path class="st8" d="M157.9,317.6c-0.6,0-1-0.4-1-1v-46.8c0-0.6,0.4-1,1-1h161.5c0.6,0,1,0.4,1,1v46.8c0,0.6-0.4,1-1,1H157.9z"/>
		<path class="st20" d="M319.4,269.8v46.8H157.9v-46.8H319.4 M319.4,267.8H157.9c-1.1,0-2,0.9-2,2v46.8c0,1.1,0.9,2,2,2h161.5
			c1.1,0,2-0.9,2-2v-46.8C321.4,268.7,320.5,267.8,319.4,267.8L319.4,267.8z"/>
	</g>
	<circle class="st20" cx="300.7" cy="282.9" r="4.7"/>
	<circle class="st20" cx="286.6" cy="282.9" r="4.7"/>
	<circle class="st21" cx="272.4" cy="282.9" r="4.7"/>
	<g>
		<path class="st8" d="M157.9,370.7c-0.6,0-1-0.4-1-1v-46.8c0-0.6,0.4-1,1-1h161.5c0.6,0,1,0.4,1,1v46.8c0,0.6-0.4,1-1,1H157.9z"/>
		<path class="st20" d="M319.4,322.9v46.8H157.9v-46.8H319.4 M319.4,320.9H157.9c-1.1,0-2,0.9-2,2v46.8c0,1.1,0.9,2,2,2h161.5
			c1.1,0,2-0.9,2-2v-46.8C321.4,321.8,320.5,320.9,319.4,320.9L319.4,320.9z"/>
	</g>
	<g>
		<rect x="169.2" y="332.7" class="st20" width="6.6" height="27.3"/>
	</g>
	<g>
		<rect x="182.7" y="332.7" class="st20" width="6.6" height="27.3"/>
	</g>
	<g>
		<rect x="196.2" y="332.7" class="st20" width="6.6" height="27.3"/>
	</g>
	<g>
		<rect x="169.2" y="279.6" class="st20" width="6.6" height="27.3"/>
	</g>
	<g>
		<rect x="182.7" y="279.6" class="st20" width="6.6" height="27.3"/>
	</g>
	<g>
		<rect x="196.2" y="279.6" class="st20" width="6.6" height="27.3"/>
	</g>
	<g>
		<rect x="169.2" y="226.4" class="st20" width="6.6" height="27.3"/>
	</g>
	<g>
		<rect x="182.7" y="226.4" class="st20" width="6.6" height="27.3"/>
	</g>
	<g>
		<rect x="196.2" y="226.4" class="st20" width="6.6" height="27.3"/>
	</g>
	<g>
		<rect x="169.2" y="173.3" class="st20" width="6.6" height="27.3"/>
	</g>
	<g>
		<rect x="182.7" y="173.3" class="st20" width="6.6" height="27.3"/>
	</g>
	<g>
		<rect x="196.2" y="173.3" class="st20" width="6.6" height="27.3"/>
	</g>
	<circle class="st20" cx="300.8" cy="336" r="4.7"/>
	<circle class="st20" cx="286.7" cy="336" r="4.7"/>
	<circle class="st21" cx="272.5" cy="336" r="4.7"/>
	<rect x="247.7" y="368.9" class="st12" width="62.2" height="3.1"/>
	<path class="st23" d="M504,376H152c-2.2,0-4-1.8-4-4l0,0c0-2.2,1.8-4,4-4h352c2.2,0,4,1.8,4,4l0,0C508,374.2,506.2,376,504,376z"/>
	<path class="st23" d="M136,376h-24c-2.2,0-4-1.8-4-4l0,0c0-2.2,1.8-4,4-4h24c2.2,0,4,1.8,4,4l0,0C140,374.2,138.2,376,136,376z"/>
	<path class="st23" d="M544,376h-24c-2.2,0-4-1.8-4-4l0,0c0-2.2,1.8-4,4-4h24c2.2,0,4,1.8,4,4l0,0C548,374.2,546.2,376,544,376z"/>
	<path class="st23" d="M96,376h-8c-2.2,0-4-1.8-4-4l0,0c0-2.2,1.8-4,4-4h8c2.2,0,4,1.8,4,4l0,0C100,374.2,98.2,376,96,376z"/>
	<path class="st23" d="M568,376h-8c-2.2,0-4-1.8-4-4l0,0c0-2.2,1.8-4,4-4h8c2.2,0,4,1.8,4,4l0,0C572,374.2,570.2,376,568,376z"/>
	<path class="st26" d="M373.9,335.4L220.6,182.1c-2.8-2.8-2.8-7.4,0-10.1h0c2.8-2.8,7.4-2.8,10.1,0L384,325.3
		c2.8,2.8,2.8,7.4,0,10.1l0,0C381.2,338.2,376.7,338.2,373.9,335.4z"/>
	<g>
		<circle class="st4" cx="228.7" cy="181.3" r="89.9"/>
		<path class="st23" d="M228.7,99.4c45.2,0,81.9,36.8,81.9,81.9s-36.8,81.9-81.9,81.9s-81.9-36.8-81.9-81.9S183.5,99.4,228.7,99.4
			 M228.7,83.4c-54.1,0-97.9,43.8-97.9,97.9s43.9,97.9,97.9,97.9s97.9-43.8,97.9-97.9S282.8,83.4,228.7,83.4L228.7,83.4z"/>
	</g>
	<g>
		<path class="st8" d="M228.7,271.2c-17.1,0-33.7-4.8-48-13.9v-103c0-6.6,5.4-12,12-12h117c5.8,12.1,8.9,25.5,8.9,39
			C318.6,230.9,278.3,271.2,228.7,271.2z"/>
		<path class="st23" d="M304.5,150.3c4,9.8,6.1,20.3,6.1,31c0,45.2-36.8,81.9-81.9,81.9c-14.2,0-27.8-3.6-40-10.4v-98.5
			c0-2.2,1.8-4,4-4H304.5 M314.6,134.3H192.7c-11.1,0-20,9-20,20v107.3c15.9,11.1,35.2,17.6,56,17.6c54.1,0,97.9-43.9,97.9-97.9
			C326.6,164.3,322.3,148.3,314.6,134.3L314.6,134.3z"/>
	</g>
	<g>
		<path class="st23" d="M255.4,241.2l-27.1,16.4l7.2-30.8l-23.8-20.7l31.4-2.7l12.3-29l12.3,29l31.4,2.7l-23.8,20.7l7.2,30.8
			L255.4,241.2z"/>
	</g>
</g>
</svg>
