<?xml version="1.0" encoding="utf-8"?>
<!-- Generator: Adobe Illustrator 21.1.0, SVG Export Plug-In . SVG Version: 6.00 Build 0)  -->
<svg version="1.1" id="Layer_1" xmlns="http://www.w3.org/2000/svg" xmlns:xlink="http://www.w3.org/1999/xlink" x="0px" y="0px"
	 viewBox="0 0 656 304" style="enable-background:new 0 0 656 304;" xml:space="preserve">
<style type="text/css">
	.st0{fill:#A3DE9F;}
	.st1{fill:#44634B;}
	.st2{fill:#70C26B;}
	.st3{fill:#D9FDD7;}
	.st4{fill:#7AD974;}
	.st5{fill:#0A7505;fill-opacity:0.8203;}
	.st6{fill:none;stroke:#62C75B;stroke-width:3;stroke-linecap:square;}
	.st7{fill:none;stroke:#489C41;stroke-width:8;}
</style>
<title>Setup_image 2</title>
<desc>Created with Sketch.</desc>
<g id="Page-1">
	<g id="Setup_image">
		<path id="Rectangle-3" class="st0" d="M2,0h652l0,0c1.1,0,2,0.9,2,2v302H0V2l0,0C0,0.9,0.9,0,2,0z"/>
		<path id="Rectangle-6-Copy-10" class="st1" d="M138,80h92c1.1,0,2,0.9,2,2v180c0,1.1-0.9,2-2,2h-92c-1.1,0-2-0.9-2-2V82
			C136,80.9,136.9,80,138,80z"/>
		<path id="Rectangle-6-Copy-15" class="st1" d="M34,224h92c1.1,0,2,0.9,2,2v36c0,1.1-0.9,2-2,2H34c-1.1,0-2-0.9-2-2v-36
			C32,224.9,32.9,224,34,224z"/>
		<path id="Rectangle-6-Copy-17" class="st1" d="M426,224h92c1.1,0,2,0.9,2,2v36c0,1.1-0.9,2-2,2h-92c-1.1,0-2-0.9-2-2v-36
			C424,224.9,424.9,224,426,224z"/>
		<path id="Rectangle-6-Copy-18" class="st1" d="M530,224h92c1.1,0,2,0.9,2,2v36c0,1.1-0.9,2-2,2h-92c-1.1,0-2-0.9-2-2v-36
			C528,224.9,528.9,224,530,224z"/>
		<rect id="Rectangle-10-Copy-2" x="488" y="248" class="st2" width="24" height="8"/>
		<rect id="Rectangle-10-Copy-3" x="592" y="248" class="st2" width="24" height="8"/>
		<g id="Group-Copy-4" transform="translate(424.000000, 183.000000)">
			<path id="Rectangle-6-Copy-16" class="st1" d="M2,0h92c1.1,0,2,0.9,2,2v36c0,1.1-0.9,2-2,2H2c-1.1,0-2-0.9-2-2V2C0,0.9,0.9,0,2,0
				z"/>
			<rect id="Rectangle-10-Copy" x="64" y="24" class="st2" width="24" height="8"/>
		</g>
		<g id="Group-Copy-8" transform="translate(528.000000, 183.000000)">
			<path id="Rectangle-6-Copy-16_1_" class="st1" d="M2,0h92c1.1,0,2,0.9,2,2v36c0,1.1-0.9,2-2,2H2c-1.1,0-2-0.9-2-2V2
				C0,0.9,0.9,0,2,0z"/>
			<rect id="Rectangle-10-Copy_1_" x="64" y="24" class="st2" width="24" height="8"/>
		</g>
		<g id="Group-Copy-5" transform="translate(424.000000, 142.000000)">
			<path id="Rectangle-6-Copy-16_2_" class="st1" d="M2,0h92c1.1,0,2,0.9,2,2v36c0,1.1-0.9,2-2,2H2c-1.1,0-2-0.9-2-2V2
				C0,0.9,0.9,0,2,0z"/>
			<rect id="Rectangle-10-Copy_2_" x="64" y="24" class="st2" width="24" height="8"/>
		</g>
		<g id="Group-Copy-9" transform="translate(528.000000, 142.000000)">
			<path id="Rectangle-6-Copy-16_3_" class="st1" d="M2,0h92c1.1,0,2,0.9,2,2v36c0,1.1-0.9,2-2,2H2c-1.1,0-2-0.9-2-2V2
				C0,0.9,0.9,0,2,0z"/>
			<rect id="Rectangle-10-Copy_3_" x="64" y="24" class="st2" width="24" height="8"/>
		</g>
		<g id="Group-Copy-6" transform="translate(424.000000, 101.000000)">
			<path id="Rectangle-6-Copy-16_4_" class="st1" d="M2,0h92c1.1,0,2,0.9,2,2v36c0,1.1-0.9,2-2,2H2c-1.1,0-2-0.9-2-2V2
				C0,0.9,0.9,0,2,0z"/>
			<rect id="Rectangle-10-Copy_4_" x="64" y="24" class="st2" width="24" height="8"/>
		</g>
		<g id="Group-Copy-10" transform="translate(528.000000, 101.000000)">
			<path id="Rectangle-6-Copy-16_5_" class="st1" d="M2,0h92c1.1,0,2,0.9,2,2v36c0,1.1-0.9,2-2,2H2c-1.1,0-2-0.9-2-2V2
				C0,0.9,0.9,0,2,0z"/>
			<rect id="Rectangle-10-Copy_5_" x="64" y="24" class="st2" width="24" height="8"/>
		</g>
		<g id="Group-Copy-7" transform="translate(424.000000, 60.000000)">
			<path id="Rectangle-6-Copy-16_6_" class="st1" d="M2,0h92c1.1,0,2,0.9,2,2v36c0,1.1-0.9,2-2,2H2c-1.1,0-2-0.9-2-2V2
				C0,0.9,0.9,0,2,0z"/>
			<rect id="Rectangle-10-Copy_6_" x="64" y="24" class="st2" width="24" height="8"/>
		</g>
		<g id="Group-Copy-11" transform="translate(528.000000, 60.000000)">
			<path id="Rectangle-6-Copy-16_7_" class="st1" d="M2,0h92c1.1,0,2,0.9,2,2v36c0,1.1-0.9,2-2,2H2c-1.1,0-2-0.9-2-2V2
				C0,0.9,0.9,0,2,0z"/>
			<rect id="Rectangle-10-Copy_7_" x="64" y="24" class="st2" width="24" height="8"/>
		</g>
		<g id="Rectangle-5" transform="translate(216.000000, 104.000000)">
			<g id="path-1-link" transform="translate(0.000000, -0.000000)">
				<path id="path-1" class="st3" d="M8,0h208c4.4,0,8,3.6,8,8v120c0,4.4-3.6,8-8,8H8c-4.4,0-8-3.6-8-8V8C0,3.6,3.6,0,8,0z"/>
			</g>
		</g>
		<polygon id="Rectangle-9" class="st4" points="224,200 240,208 264,192 288,200 312,168 336,176 360,136 384,152 432,120 432,232 
			224,232 		"/>
		<rect id="Rectangle-6" x="152" y="96" class="st2" width="24" height="8"/>
		<path id="Combined-Shape" class="st5" d="M316,240h24l6,22h-36L316,240z M304.8,262h46.5c0.4,0,0.8,0.2,0.8,0.5v1
			c0,0.3-0.3,0.5-0.8,0.5h-46.5c-0.4,0-0.8-0.2-0.8-0.5v-1C304,262.2,304.3,262,304.8,262z"/>
		<polyline id="Path-2" class="st6" points="224,200 240,208 264,192 288,200 312,168.2 336,176 360,136 384,152 432.1,120.1 		"/>
		<path id="Rectangle-5_1_" class="st7" d="M224,108h208c2.2,0,4,1.8,4,4v120c0,2.2-1.8,4-4,4H224c-2.2,0-4-1.8-4-4V112
			C220,109.8,221.8,108,224,108z"/>
		<rect id="Rectangle-10" x="96" y="248" class="st2" width="24" height="8"/>
		<g id="Group" transform="translate(32.000000, 183.000000)">
			<path id="Rectangle-6-Copy-16_8_" class="st1" d="M2,0h92c1.1,0,2,0.9,2,2v36c0,1.1-0.9,2-2,2H2c-1.1,0-2-0.9-2-2V2
				C0,0.9,0.9,0,2,0z"/>
			<rect id="Rectangle-10-Copy_8_" x="64" y="24" class="st2" width="24" height="8"/>
		</g>
		<g id="Group-Copy" transform="translate(32.000000, 142.000000)">
			<path id="Rectangle-6-Copy-16_9_" class="st1" d="M2,0h92c1.1,0,2,0.9,2,2v36c0,1.1-0.9,2-2,2H2c-1.1,0-2-0.9-2-2V2
				C0,0.9,0.9,0,2,0z"/>
			<rect id="Rectangle-10-Copy_9_" x="64" y="24" class="st2" width="24" height="8"/>
		</g>
		<g id="Group-Copy-2" transform="translate(32.000000, 101.000000)">
			<path id="Rectangle-6-Copy-16_10_" class="st1" d="M2,0h92c1.1,0,2,0.9,2,2v36c0,1.1-0.9,2-2,2H2c-1.1,0-2-0.9-2-2V2
				C0,0.9,0.9,0,2,0z"/>
			<rect id="Rectangle-10-Copy_10_" x="64" y="24" class="st2" width="24" height="8"/>
		</g>
		<g id="Group-Copy-3" transform="translate(32.000000, 60.000000)">
			<path id="Rectangle-6-Copy-16_11_" class="st1" d="M2,0h92c1.1,0,2,0.9,2,2v36c0,1.1-0.9,2-2,2H2c-1.1,0-2-0.9-2-2V2
				C0,0.9,0.9,0,2,0z"/>
			<rect id="Rectangle-10-Copy_11_" x="64" y="24" class="st2" width="24" height="8"/>
		</g>
	</g>
</g>
</svg>
