<?xml version="1.0" encoding="utf-8"?>
<!-- Generator: Adobe Illustrator 21.1.0, SVG Export Plug-In . SVG Version: 6.00 Build 0)  -->
<svg version="1.1" xmlns="http://www.w3.org/2000/svg" xmlns:xlink="http://www.w3.org/1999/xlink" x="0px" y="0px"
	 viewBox="0 0 656 376" style="enable-background:new 0 0 656 376;" xml:space="preserve">
<style type="text/css">
	.st0{display:none;}
	.st1{display:inline;opacity:0.16;fill:#39B54A;}
	.st2{fill:#F4FAFF;}
	.st3{fill:#E3F5FF;}
	.st4{fill:#FFFFFF;}
	.st5{opacity:8.000000e-02;}
	.st6{opacity:0.48;}
	.st7{fill:#22B573;}
	.st8{fill:#F2F2F2;}
	.st9{fill:#999999;}
	.st10{fill:#29ABE2;}
	.st11{opacity:0.16;}
	.st12{fill:#B3B3B3;}
	.st13{fill:#F0F8F1;}
	.st14{fill:#75C594;}
	.st15{fill:#00A775;}
	.st16{fill:none;}
	.st17{fill:none;stroke:#333333;stroke-width:4;stroke-miterlimit:10;}
	.st18{fill:#46BF5B;stroke:#333333;stroke-width:4;stroke-linejoin:round;stroke-miterlimit:10;}
	.st19{fill:#666666;}
	.st20{fill:#CCCCCC;}
	.st21{opacity:0.56;fill:#333333;}
	.st22{fill:#333333;}
	.st23{fill:none;stroke:#999999;stroke-width:2;stroke-linecap:round;stroke-linejoin:round;}
	.st24{fill:none;stroke:#999999;stroke-width:2;stroke-linecap:round;stroke-linejoin:round;stroke-dasharray:8.1829,8.1829;}
	.st25{fill:none;stroke:#999999;stroke-width:2;stroke-linecap:round;stroke-linejoin:round;stroke-dasharray:8.1594,8.1594;}
	.st26{fill:#FFFFFF;stroke:#666666;stroke-width:2;stroke-linecap:round;stroke-linejoin:round;stroke-miterlimit:10;}
	.st27{fill:#CCCCCC;stroke:#666666;stroke-width:2;stroke-linecap:round;stroke-linejoin:round;stroke-miterlimit:10;}
	.st28{fill:#009245;}
	.st29{fill:#E9C6B5;}
	.st30{fill:#FFD9C3;}
	.st31{fill:#0071BC;}
	.st32{fill:#534741;}
	.st33{display:inline;opacity:8.000000e-02;fill:#46BF5B;}
	.st34{display:inline;fill:none;}
	.st35{display:inline;fill:#FFCBB0;}
	.st36{display:inline;}
	.st37{fill:#F6B254;}
	.st38{display:inline;fill:#F46F24;}
	.st39{display:inline;fill:#333333;}
</style>
<g id="Layer_2" class="st0">
	<circle class="st1" cx="-410.5" cy="-716.8" r="132"/>
	<circle class="st1" cx="-410.5" cy="-716.8" r="188"/>
	<circle class="st1" cx="-410.5" cy="-716.8" r="159.6"/>
</g>
<g id="Layer_3">
	<g>
		<ellipse class="st2" cx="-537.7" cy="-757.3" rx="101.5" ry="104.7"/>
		<ellipse class="st2" cx="-626.2" cy="-743.9" rx="80.6" ry="83.1"/>
	</g>
	<g>
		<ellipse class="st3" cx="-425.8" cy="-773.4" rx="112" ry="115.5"/>
		<ellipse class="st3" cx="-492.4" cy="-727.9" rx="69.5" ry="71.7"/>
		<ellipse class="st3" cx="-555.1" cy="-716.8" rx="54.9" ry="56.6"/>
	</g>
	<g>
		<ellipse class="st2" cx="-444.5" cy="-701.5" rx="75" ry="77.3"/>
		<ellipse class="st2" cx="-390.7" cy="-730.8" rx="46.5" ry="48"/>
		<ellipse class="st2" cx="-289.2" cy="-749.8" rx="101.5" ry="104.7"/>
	</g>
	<g>
		<ellipse class="st4" cx="-202.8" cy="-703.4" rx="101.5" ry="104.7"/>
		<ellipse class="st4" cx="-330.4" cy="-652.6" rx="101.5" ry="104.7"/>
	</g>
	<ellipse class="st4" cx="-662.3" cy="-683.7" rx="122.6" ry="126.4"/>
</g>
<g id="Layer_1">
	<g>
		<g>
			<g class="st5">
				<path d="M-142.2-665.3h-137.3c-1.1,0-2-0.9-2-2v-39.4c0-1.1,0.9-2,2-2h137.3c1.1,0,2,0.9,2,2v39.4
					C-140.2-666.2-141.1-665.3-142.2-665.3z"/>
			</g>
			<g class="st6">
				<rect x="-272.1" y="-702.8" width="5.6" height="31.6"/>
			</g>
			<g class="st6">
				<rect x="-260.6" y="-702.8" width="5.6" height="31.6"/>
			</g>
			<g class="st6">
				<rect x="-249.1" y="-702.8" width="5.6" height="31.6"/>
			</g>
			<circle class="st7" cx="-160.9" cy="-698.8" r="4"/>
			<circle class="st7" cx="-172.9" cy="-698.8" r="4"/>
			<circle class="st4" cx="-185" cy="-698.8" r="4"/>
		</g>
		<g>
			<g class="st5">
				<path d="M-142.2-619.9h-137.3c-1.1,0-2-0.9-2-2v-39.4c0-1.1,0.9-2,2-2h137.3c1.1,0,2,0.9,2,2v39.4
					C-140.2-620.8-141.1-619.9-142.2-619.9z"/>
			</g>
			<g class="st6">
				<rect x="-272.1" y="-657.4" width="5.6" height="31.6"/>
			</g>
			<g class="st6">
				<rect x="-260.6" y="-657.4" width="5.6" height="31.6"/>
			</g>
			<g class="st6">
				<rect x="-249.1" y="-657.4" width="5.6" height="31.6"/>
			</g>
			<circle class="st7" cx="-160.8" cy="-653.4" r="4"/>
			<circle class="st7" cx="-172.8" cy="-653.4" r="4"/>
			<circle class="st4" cx="-185" cy="-653.4" r="4"/>
		</g>
		<g>
			<g class="st5">
				<path d="M-142.2-574.5h-137.3c-1.1,0-2-0.9-2-2v-39.4c0-1.1,0.9-2,2-2h137.3c1.1,0,2,0.9,2,2v39.4
					C-140.2-575.4-141.1-574.5-142.2-574.5z"/>
			</g>
			<g class="st6">
				<rect x="-272.1" y="-612" width="5.6" height="31.6"/>
			</g>
			<g class="st6">
				<rect x="-260.6" y="-612" width="5.6" height="31.6"/>
			</g>
			<g class="st6">
				<rect x="-249.1" y="-612" width="5.6" height="31.6"/>
			</g>
			<circle class="st7" cx="-160.8" cy="-608" r="4"/>
			<circle class="st7" cx="-172.8" cy="-608" r="4"/>
			<circle class="st4" cx="-185" cy="-608" r="4"/>
		</g>
		<g>
			<g class="st5">
				<path d="M-142.2-529.2h-137.3c-1.1,0-2-0.9-2-2v-39.4c0-1.1,0.9-2,2-2h137.3c1.1,0,2,0.9,2,2v39.4
					C-140.2-530.1-141.1-529.2-142.2-529.2z"/>
			</g>
			<g class="st6">
				<rect x="-272.1" y="-566.6" width="5.6" height="31.6"/>
			</g>
			<g class="st6">
				<rect x="-260.6" y="-566.6" width="5.6" height="31.6"/>
			</g>
			<g class="st6">
				<rect x="-249.1" y="-566.6" width="5.6" height="31.6"/>
			</g>
			<circle class="st7" cx="-160.8" cy="-562.6" r="4"/>
			<circle class="st7" cx="-172.8" cy="-562.6" r="4"/>
			<circle class="st4" cx="-184.9" cy="-562.6" r="4"/>
		</g>
	</g>
	<g>
		<path class="st8" d="M-207.9-528.9H-304c-1.1,0-2-0.9-2-2v-211c0-1.1,0.9-2,2-2h96.1c1.1,0,2,0.9,2,2v211
			C-205.9-529.8-206.8-528.9-207.9-528.9z"/>
	</g>
	<g class="st6">
		<rect x="-292.3" y="-556.7" class="st9" width="74.5" height="5.6"/>
	</g>
	<g class="st6">
		<rect x="-292.3" y="-568.2" class="st9" width="74.5" height="5.6"/>
	</g>
	<g class="st6">
		<rect x="-292.3" y="-579.7" class="st9" width="74.5" height="5.6"/>
	</g>
	<g class="st5">
		<path d="M-532.4-665.3h-137.3c-1.1,0-2-0.9-2-2v-39.4c0-1.1,0.9-2,2-2h137.3c1.1,0,2,0.9,2,2v39.4
			C-530.4-666.2-531.3-665.3-532.4-665.3z"/>
	</g>
	<g class="st6">
		<rect x="-662.3" y="-702.8" class="st9" width="5.6" height="31.6"/>
	</g>
	<g class="st6">
		<rect x="-650.8" y="-702.8" class="st9" width="5.6" height="31.6"/>
	</g>
	<g class="st6">
		<rect x="-639.3" y="-702.8" class="st9" width="5.6" height="31.6"/>
	</g>
	<circle class="st7" cx="-551.1" cy="-698.8" r="4"/>
	<circle class="st7" cx="-563.1" cy="-698.8" r="4"/>
	<circle class="st4" cx="-575.2" cy="-698.8" r="4"/>
	<circle class="st10" cx="-221.8" cy="-730.8" r="4"/>
	<circle class="st10" cx="-233.8" cy="-730.8" r="4"/>
	<circle class="st4" cx="-245.9" cy="-730.8" r="4"/>
	<g class="st5">
		<path d="M-532.4-619.9h-137.3c-1.1,0-2-0.9-2-2v-39.4c0-1.1,0.9-2,2-2h137.3c1.1,0,2,0.9,2,2v39.4
			C-530.4-620.8-531.3-619.9-532.4-619.9z"/>
	</g>
	<g class="st6">
		<rect x="-662.3" y="-657.4" class="st9" width="5.6" height="31.6"/>
	</g>
	<g class="st6">
		<rect x="-650.8" y="-657.4" class="st9" width="5.6" height="31.6"/>
	</g>
	<g class="st6">
		<rect x="-639.3" y="-657.4" class="st9" width="5.6" height="31.6"/>
	</g>
	<circle class="st7" cx="-551" cy="-653.4" r="4"/>
	<circle class="st7" cx="-563" cy="-653.4" r="4"/>
	<circle class="st4" cx="-575.2" cy="-653.4" r="4"/>
	<g class="st5">
		<path d="M-532.4-574.5h-137.3c-1.1,0-2-0.9-2-2v-39.4c0-1.1,0.9-2,2-2h137.3c1.1,0,2,0.9,2,2v39.4
			C-530.4-575.4-531.3-574.5-532.4-574.5z"/>
	</g>
	<g class="st6">
		<rect x="-662.3" y="-612" class="st9" width="5.6" height="31.6"/>
	</g>
	<g class="st6">
		<rect x="-650.8" y="-612" class="st9" width="5.6" height="31.6"/>
	</g>
	<g class="st6">
		<rect x="-639.3" y="-612" class="st9" width="5.6" height="31.6"/>
	</g>
	<circle class="st7" cx="-551" cy="-608" r="4"/>
	<circle class="st7" cx="-563" cy="-608" r="4"/>
	<circle class="st4" cx="-575.2" cy="-608" r="4"/>
	<g class="st5">
		<path d="M-532.4-529.2h-137.3c-1.1,0-2-0.9-2-2v-39.4c0-1.1,0.9-2,2-2h137.3c1.1,0,2,0.9,2,2v39.4
			C-530.4-530.1-531.3-529.2-532.4-529.2z"/>
	</g>
	<g class="st6">
		<rect x="-662.3" y="-566.6" class="st9" width="5.6" height="31.6"/>
	</g>
	<g class="st6">
		<rect x="-650.8" y="-566.6" class="st9" width="5.6" height="31.6"/>
	</g>
	<g class="st6">
		<rect x="-639.3" y="-566.6" class="st9" width="5.6" height="31.6"/>
	</g>
	<circle class="st7" cx="-551" cy="-562.6" r="4"/>
	<circle class="st7" cx="-563" cy="-562.6" r="4"/>
	<circle class="st4" cx="-575.1" cy="-562.6" r="4"/>
	<polygon class="st11" points="-392.5,-531.9 -431.9,-531.9 -425.9,-563.9 -398.5,-563.9 	"/>
	<rect x="-443.3" y="-531.9" class="st5" width="62.2" height="3.1"/>
	<g>
		<path class="st8" d="M-528.9-559.9c-6.1,0-11-4.9-11-11v-152c0-6.1,4.9-11,11-11h236.7c6.1,0,11,4.9,11,11v152c0,6.1-4.9,11-11,11
			H-528.9z"/>
		<path class="st12" d="M-292.2-732.8c5.5,0,10,4.5,10,10v152c0,5.5-4.5,10-10,10h-236.7c-5.5,0-10-4.5-10-10v-152
			c0-5.5,4.5-10,10-10H-292.2 M-292.2-734.8h-236.7c-6.6,0-12,5.4-12,12v152c0,6.6,5.4,12,12,12h236.7c6.6,0,12-5.4,12-12v-152
			C-280.2-729.4-285.6-734.8-292.2-734.8L-292.2-734.8z"/>
	</g>
	<g>
		<rect x="-531.1" y="-724.4" class="st13" width="241.2" height="136.6"/>
		<path class="st12" d="M-291-723.4v134.6h-239.2v-134.6H-291 M-289-725.4h-243.2v138.6H-289V-725.4L-289-725.4z"/>
	</g>
	<path class="st14" d="M-395.5-645.4h-30.1c-4.8,0-8.8-3.9-8.8-8.8v-19.8c0-13.1,10.6-23.7,23.7-23.7c13.2,0,23.9,10.7,23.9,23.9
		v19.6C-386.7-649.3-390.7-645.4-395.5-645.4z M-425.2-654.6h29.2v-19.2c0-8.1-6.6-14.7-14.7-14.7c-8,0-14.5,6.5-14.5,14.5V-654.6z"
		/>
	<g>
		<rect x="-440" y="-660.5" class="st15" width="58.9" height="45.9"/>
	</g>
	<g>
		<g>
			<circle class="st13" cx="-410.5" cy="-641.6" r="7.4"/>
		</g>
		<polygon class="st13" points="-407,-626.9 -414,-626.9 -413.2,-637.8 -407.9,-637.8 		"/>
	</g>
	<path class="st16" d="M-468.7-287.3c-20.9,0-37.9,17-37.9,37.9v35.1h76.3v-34.6C-430.3-270.1-447.5-287.3-468.7-287.3z"/>
	<path class="st17" d="M-506.6-247.3c0-20.9,17-37.9,37.9-37.9c21.1,0,38.4,17.2,38.4,38.4v34.6h23.9v-34.6
		c0-34.4-27.9-62.3-62.3-62.3c-34.1,0-61.9,27.8-61.9,61.9v35.1h23.9V-247.3z"/>
	<path class="st17" d="M-406.4-212.3h-23.9h-76.3h-23.9h-14.7v119.7h153.7v-119.7H-406.4z M-460.9-145.3l1.6,20.7h-18.2l1.6-20.7
		c-6.9-2.9-11.8-9.8-11.8-17.8c0-3.6,1-7,2.7-9.8c3.4-5.7,9.5-9.4,16.6-9.4c7.1,0,13.2,3.8,16.6,9.4c1.7,2.9,2.7,6.2,2.7,9.8
		C-449.2-155.1-454-148.3-460.9-145.3z"/>
	<path class="st18" d="M-315-190.7l-75.3-101.7l20.5-15.2l-16.4-22.1l-20.5,15.2l-6.7-9.1l-22.1,16.4l98.5,132.9
		c-13.5,17.5-14.4,42.4-0.6,61c16.6,22.4,48.3,27.1,70.7,10.5s27.1-48.3,10.5-70.7C-270.3-192.1-294.4-198.5-315-190.7z
		 M-283.5-124.9c-10.2,7.6-24.6,5.4-32.2-4.8c-7.6-10.2-5.4-24.6,4.8-32.2c10.2-7.6,24.6-5.4,32.2,4.8S-273.3-132.5-283.5-124.9z"/>
	<g>
		<path class="st8" d="M-248.4,235.6h-137.3c-1.1,0-2-0.9-2-2v-39.4c0-1.1,0.9-2,2-2h137.3c1.1,0,2,0.9,2,2v39.4
			C-246.4,234.7-247.3,235.6-248.4,235.6z"/>
		<path class="st19" d="M-248.4,194.2v39.4h-137.3v-39.4H-248.4 M-248.4,192.2h-137.3c-1.1,0-2,0.9-2,2v39.4c0,1.1,0.9,2,2,2h137.3
			c1.1,0,2-0.9,2-2v-39.4C-246.4,193.1-247.3,192.2-248.4,192.2L-248.4,192.2z"/>
	</g>
	<g class="st6">
		<rect x="-378.3" y="198.1" width="5.6" height="31.6"/>
	</g>
	<g class="st6">
		<rect x="-366.8" y="198.1" width="5.6" height="31.6"/>
	</g>
	<g class="st6">
		<rect x="-355.3" y="198.1" width="5.6" height="31.6"/>
	</g>
	<circle class="st19" cx="-264.1" cy="205.1" r="4"/>
	<circle class="st19" cx="-276.1" cy="205.1" r="4"/>
	<circle class="st20" cx="-288.3" cy="205.1" r="4"/>
	<g>
		<path class="st8" d="M-248.4,281h-137.3c-1.1,0-2-0.9-2-2v-39.4c0-1.1,0.9-2,2-2h137.3c1.1,0,2,0.9,2,2V279
			C-246.4,280.1-247.3,281-248.4,281z"/>
		<path class="st19" d="M-248.4,239.6V279h-137.3v-39.4H-248.4 M-248.4,237.6h-137.3c-1.1,0-2,0.9-2,2V279c0,1.1,0.9,2,2,2h137.3
			c1.1,0,2-0.9,2-2v-39.4C-246.4,238.5-247.3,237.6-248.4,237.6L-248.4,237.6z"/>
	</g>
	<g class="st6">
		<rect x="-378.3" y="243.5" width="5.6" height="31.6"/>
	</g>
	<g class="st6">
		<rect x="-366.8" y="243.5" width="5.6" height="31.6"/>
	</g>
	<g class="st6">
		<rect x="-355.3" y="243.5" width="5.6" height="31.6"/>
	</g>
	<circle class="st19" cx="-264.1" cy="250.5" r="4"/>
	<circle class="st19" cx="-276.1" cy="250.5" r="4"/>
	<circle class="st20" cx="-288.2" cy="250.5" r="4"/>
	<g>
		<path class="st8" d="M-248.4,326.4h-137.3c-1.1,0-2-0.9-2-2V285c0-1.1,0.9-2,2-2h137.3c1.1,0,2,0.9,2,2v39.4
			C-246.4,325.5-247.3,326.4-248.4,326.4z"/>
		<path class="st19" d="M-248.4,285v39.4h-137.3V285H-248.4 M-248.4,283h-137.3c-1.1,0-2,0.9-2,2v39.4c0,1.1,0.9,2,2,2h137.3
			c1.1,0,2-0.9,2-2V285C-246.4,283.9-247.3,283-248.4,283L-248.4,283z"/>
	</g>
	<g class="st6">
		<rect x="-378.3" y="288.9" width="5.6" height="31.6"/>
	</g>
	<g class="st6">
		<rect x="-366.8" y="288.9" width="5.6" height="31.6"/>
	</g>
	<g class="st6">
		<rect x="-355.3" y="288.9" width="5.6" height="31.6"/>
	</g>
	<circle class="st19" cx="-264.1" cy="295.9" r="4"/>
	<circle class="st19" cx="-276.1" cy="295.9" r="4"/>
	<circle class="st20" cx="-288.2" cy="295.9" r="4"/>
	<g>
		<path class="st8" d="M-248.4,371.7h-137.3c-1.1,0-2-0.9-2-2v-39.4c0-1.1,0.9-2,2-2h137.3c1.1,0,2,0.9,2,2v39.4
			C-246.4,370.8-247.3,371.7-248.4,371.7z"/>
		<path class="st19" d="M-248.4,330.4v39.4h-137.3v-39.4H-248.4 M-248.4,328.4h-137.3c-1.1,0-2,0.9-2,2v39.4c0,1.1,0.9,2,2,2h137.3
			c1.1,0,2-0.9,2-2v-39.4C-246.4,329.3-247.3,328.4-248.4,328.4L-248.4,328.4z"/>
	</g>
	<g>
		<rect x="-376.3" y="338.4" class="st19" width="5.6" height="23.3"/>
	</g>
	<g>
		<rect x="-364.8" y="338.4" class="st19" width="5.6" height="23.3"/>
	</g>
	<g>
		<rect x="-353.3" y="338.4" class="st19" width="5.6" height="23.3"/>
	</g>
	<circle class="st19" cx="-264" cy="341.2" r="4"/>
	<circle class="st19" cx="-276" cy="341.2" r="4"/>
	<circle class="st20" cx="-288.1" cy="341.2" r="4"/>
	<rect x="-490.8" y="368.9" class="st5" width="62.2" height="3.1"/>
	<g>
		<polygon class="st8" points="-423.3,369.9 -466.8,369.9 -460.2,334.6 -429.9,334.6 		"/>
		<path class="st21" d="M-422.1,370.9H-468l7-37.3h31.9L-422.1,370.9z M-465.6,368.9h41.1l-6.3-33.3h-28.6L-465.6,368.9z"/>
	</g>
	<g>
		<path class="st20" d="M-311.9,340.1h-264.4c-6.6,0-12-5.4-12-12V157.4c0-6.6,5.4-12,12-12h264.4c6.6,0,12,5.4,12,12v170.7
			C-299.9,334.7-305.3,340.1-311.9,340.1z"/>
		<path class="st19" d="M-311.9,341.1h-264.4c-7.2,0-13-5.8-13-13V157.4c0-7.2,5.8-13,13-13h264.4c7.2,0,13,5.8,13,13v170.7
			C-298.9,335.3-304.7,341.1-311.9,341.1z M-576.3,146.4c-6.1,0-11,4.9-11,11v170.7c0,6.1,4.9,11,11,11h264.4c6.1,0,11-4.9,11-11
			V157.4c0-6.1-4.9-11-11-11H-576.3z"/>
	</g>
	<g>
		<rect x="-578.7" y="155.8" class="st8" width="269.1" height="153.3"/>
		<path class="st19" d="M-311.6,157.8v149.3h-265.1V157.8H-311.6 M-309.6,155.8h-269.1v153.3h269.1V155.8L-309.6,155.8z"/>
	</g>
	<path class="st22" d="M-234.5,376h-352c-2.2,0-4-1.8-4-4l0,0c0-2.2,1.8-4,4-4h352c2.2,0,4,1.8,4,4l0,0
		C-230.5,374.2-232.3,376-234.5,376z"/>
	<path class="st22" d="M-602.5,376h-24c-2.2,0-4-1.8-4-4v0c0-2.2,1.8-4,4-4h24c2.2,0,4,1.8,4,4v0C-598.5,374.2-600.3,376-602.5,376z
		"/>
	<path class="st22" d="M-194.5,376h-24c-2.2,0-4-1.8-4-4v0c0-2.2,1.8-4,4-4h24c2.2,0,4,1.8,4,4v0C-190.5,374.2-192.3,376-194.5,376z
		"/>
	<path class="st22" d="M-642.5,376h-8c-2.2,0-4-1.8-4-4v0c0-2.2,1.8-4,4-4h8c2.2,0,4,1.8,4,4v0C-638.5,374.2-640.3,376-642.5,376z"
		/>
	<path class="st22" d="M-170.5,376h-8c-2.2,0-4-1.8-4-4v0c0-2.2,1.8-4,4-4h8c2.2,0,4,1.8,4,4v0C-166.5,374.2-168.3,376-170.5,376z"
		/>
	<g>
		<path class="st20" d="M-437.9,242.4l0-44.7l13.2,0l0-14.2l-13.2,0l0-5.8l-14.2,0l0,64.8c-11,3.1-19,13.2-19,25.1
			c0,14.4,11.7,26.1,26.1,26.1c14.4,0,26.1-11.7,26.1-26.1C-418.9,255.5-427,245.5-437.9,242.4z M-445,279.4
			c-6.6,0-11.9-5.3-11.9-11.9c0-6.6,5.3-11.9,11.9-11.9c6.6,0,11.9,5.3,11.9,11.9S-438.5,279.4-445,279.4z"/>
		<path class="st19" d="M-445,294.6c-15,0-27.1-12.2-27.1-27.1c0-11.8,7.8-22.3,19-25.9l0-64.1c0-0.3,0.1-0.5,0.3-0.7
			s0.4-0.3,0.7-0.3l14.2,0c0.3,0,0.5,0.1,0.7,0.3s0.3,0.4,0.3,0.7l0,4.8l12.2,0c0.6,0,1,0.4,1,1l0,14.2c0,0.3-0.1,0.5-0.3,0.7
			s-0.4,0.3-0.7,0.3l-12.2,0l0,43c11.2,3.5,19,14,19,25.9C-417.9,282.5-430.1,294.6-445,294.6C-445,294.6-445,294.6-445,294.6z
			 M-451.2,178.6l0,63.8c0,0.4-0.3,0.8-0.7,1c-10.8,3-18.3,13-18.3,24.2c0,13.9,11.3,25.1,25.1,25.1c0,0,0,0,0,0
			c13.9,0,25.1-11.3,25.1-25.1c0-11.2-7.5-21.1-18.3-24.2c-0.4-0.1-0.7-0.5-0.7-1l0-44.7c0-0.3,0.1-0.5,0.3-0.7s0.4-0.3,0.7-0.3
			l12.2,0l0-12.2l-12.2,0c-0.3,0-0.5-0.1-0.7-0.3s-0.3-0.4-0.3-0.7l0-4.8L-451.2,178.6z M-445,280.4c-7.1,0-12.9-5.8-12.9-12.9
			c0-3.4,1.3-6.7,3.8-9.1c2.4-2.4,5.7-3.8,9.1-3.8c0,0,0,0,0,0c3.4,0,6.7,1.3,9.1,3.8c2.4,2.4,3.8,5.7,3.8,9.1
			C-432.1,274.6-437.9,280.4-445,280.4C-445,280.4-445,280.4-445,280.4z M-445,256.6C-445,256.6-445,256.6-445,256.6
			c-6,0-10.9,4.9-10.9,10.9c0,6,4.9,10.9,10.9,10.9c0,0,0,0,0,0c6,0,10.9-4.9,10.9-10.9C-434.2,261.5-439,256.6-445,256.6z"/>
	</g>
	<path class="st20" d="M-493,248.7l0-34.6l10.2,0l0-11l-10.2,0l0-4.5l-11,0l0,50.1c-8.5,2.4-14.7,10.2-14.7,19.4
		c0,11.2,9.1,20.2,20.2,20.2c11.2,0,20.2-9.1,20.2-20.2C-478.2,258.9-484.5,251.1-493,248.7z M-498.5,277.4c-5.1,0-9.2-4.1-9.2-9.2
		c0-5.1,4.1-9.2,9.2-9.2c5.1,0,9.2,4.1,9.2,9.2C-489.3,273.3-493.4,277.4-498.5,277.4z"/>
	<path class="st20" d="M-541.4,248.7l0-34.6l10.2,0l0-11l-10.2,0l0-4.5l-11,0l0,50.1c-8.5,2.4-14.7,10.2-14.7,19.4
		c0,11.2,9.1,20.2,20.2,20.2s20.2-9.1,20.2-20.2C-526.7,258.9-532.9,251.1-541.4,248.7z M-546.9,277.4c-5.1,0-9.2-4.1-9.2-9.2
		c0-5.1,4.1-9.2,9.2-9.2c5.1,0,9.2,4.1,9.2,9.2C-537.7,273.3-541.8,277.4-546.9,277.4z"/>
	<path class="st20" d="M-384.3,248.7l0-34.6l10.2,0l0-11l-10.2,0l0-4.5l-11,0l0,50.1c-8.5,2.4-14.7,10.2-14.7,19.4
		c0,11.2,9.1,20.2,20.2,20.2s20.2-9.1,20.2-20.2C-369.5,258.9-375.8,251.1-384.3,248.7z M-389.8,277.4c-5.1,0-9.2-4.1-9.2-9.2
		c0-5.1,4.1-9.2,9.2-9.2c5.1,0,9.2,4.1,9.2,9.2C-380.6,273.3-384.7,277.4-389.8,277.4z"/>
	<path class="st20" d="M-335.6,248.7l0-34.6l10.2,0l0-11l-10.2,0l0-4.5l-11,0l0,50.1c-8.5,2.4-14.7,10.2-14.7,19.4
		c0,11.2,9.1,20.2,20.2,20.2s20.2-9.1,20.2-20.2C-320.8,258.9-327.1,251.1-335.6,248.7z M-341.1,277.4c-5.1,0-9.2-4.1-9.2-9.2
		c0-5.1,4.1-9.2,9.2-9.2c5.1,0,9.2,4.1,9.2,9.2C-331.9,273.3-336,277.4-341.1,277.4z"/>
	<g>
		<g>
			<polyline class="st23" points="499.5,207.3 499.5,211.3 495.5,211.3 			"/>
			<line class="st24" x1="487.3" y1="211.3" x2="344.1" y2="211.3"/>
			<polyline class="st23" points="340,211.3 336,211.3 336,207.3 			"/>
			<line class="st25" x1="336" y1="199.2" x2="336" y2="170.6"/>
			<polyline class="st23" points="336,166.5 336,162.5 340,162.5 			"/>
			<line class="st24" x1="348.2" y1="162.5" x2="491.4" y2="162.5"/>
			<polyline class="st23" points="495.5,162.5 499.5,162.5 499.5,166.5 			"/>
			<line class="st25" x1="499.5" y1="174.7" x2="499.5" y2="203.2"/>
		</g>
	</g>
	<g>
		<g>
			<polyline class="st23" points="499.5,260.5 499.5,264.5 495.5,264.5 			"/>
			<line class="st24" x1="487.3" y1="264.5" x2="344.1" y2="264.5"/>
			<polyline class="st23" points="340,264.5 336,264.5 336,260.5 			"/>
			<line class="st25" x1="336" y1="252.3" x2="336" y2="223.7"/>
			<polyline class="st23" points="336,219.7 336,215.7 340,215.7 			"/>
			<line class="st24" x1="348.2" y1="215.7" x2="491.4" y2="215.7"/>
			<polyline class="st23" points="495.5,215.7 499.5,215.7 499.5,219.7 			"/>
			<line class="st25" x1="499.5" y1="227.8" x2="499.5" y2="256.4"/>
		</g>
	</g>
	<g>
		<path class="st8" d="M337,317.6c-0.6,0-1-0.4-1-1v-46.8c0-0.6,0.4-1,1-1h161.5c0.6,0,1,0.4,1,1v46.8c0,0.6-0.4,1-1,1H337z"/>
		<path class="st19" d="M498.5,269.8v46.8H337v-46.8H498.5 M498.5,267.8H337c-1.1,0-2,0.9-2,2v46.8c0,1.1,0.9,2,2,2h161.5
			c1.1,0,2-0.9,2-2v-46.8C500.5,268.7,499.6,267.8,498.5,267.8L498.5,267.8z"/>
	</g>
	<circle class="st19" cx="479.8" cy="282.9" r="4.7"/>
	<circle class="st19" cx="465.8" cy="282.9" r="4.7"/>
	<circle class="st20" cx="451.6" cy="282.9" r="4.7"/>
	<g>
		<path class="st8" d="M337,370.7c-0.6,0-1-0.4-1-1v-46.8c0-0.6,0.4-1,1-1h161.5c0.6,0,1,0.4,1,1v46.8c0,0.6-0.4,1-1,1H337z"/>
		<path class="st19" d="M498.5,322.9v46.8H337v-46.8H498.5 M498.5,320.9H337c-1.1,0-2,0.9-2,2v46.8c0,1.1,0.9,2,2,2h161.5
			c1.1,0,2-0.9,2-2v-46.8C500.5,321.8,499.6,320.9,498.5,320.9L498.5,320.9z"/>
	</g>
	<g>
		<rect x="348.4" y="332.7" class="st19" width="6.6" height="27.3"/>
	</g>
	<g>
		<rect x="361.9" y="332.7" class="st19" width="6.6" height="27.3"/>
	</g>
	<g>
		<rect x="375.3" y="332.7" class="st19" width="6.6" height="27.3"/>
	</g>
	<g>
		<rect x="348.4" y="279.6" class="st19" width="6.6" height="27.3"/>
	</g>
	<g>
		<rect x="361.9" y="279.6" class="st19" width="6.6" height="27.3"/>
	</g>
	<g>
		<rect x="375.3" y="279.6" class="st19" width="6.6" height="27.3"/>
	</g>
	<circle class="st19" cx="479.9" cy="336" r="4.7"/>
	<circle class="st19" cx="465.9" cy="336" r="4.7"/>
	<circle class="st20" cx="451.6" cy="336" r="4.7"/>
	<g>
		<path class="st8" d="M157.9,211.3c-0.6,0-1-0.4-1-1v-46.8c0-0.6,0.4-1,1-1h161.5c0.6,0,1,0.4,1,1v46.8c0,0.6-0.4,1-1,1H157.9z"/>
		<path class="st19" d="M319.4,163.5v46.8H157.9v-46.8H319.4 M319.4,161.5H157.9c-1.1,0-2,0.9-2,2v46.8c0,1.1,0.9,2,2,2h161.5
			c1.1,0,2-0.9,2-2v-46.8C321.4,162.4,320.5,161.5,319.4,161.5L319.4,161.5z"/>
	</g>
	<circle class="st19" cx="300.6" cy="176.6" r="4.7"/>
	<circle class="st19" cx="286.5" cy="176.6" r="4.7"/>
	<circle class="st20" cx="272.3" cy="176.6" r="4.7"/>
	<g>
		<path class="st8" d="M157.9,264.5c-0.6,0-1-0.4-1-1v-46.8c0-0.6,0.4-1,1-1h161.5c0.6,0,1,0.4,1,1v46.8c0,0.6-0.4,1-1,1H157.9z"/>
		<path class="st19" d="M319.4,216.7v46.8H157.9v-46.8H319.4 M319.4,214.7H157.9c-1.1,0-2,0.9-2,2v46.8c0,1.1,0.9,2,2,2h161.5
			c1.1,0,2-0.9,2-2v-46.8C321.4,215.6,320.5,214.7,319.4,214.7L319.4,214.7z"/>
	</g>
	<circle class="st19" cx="300.7" cy="229.7" r="4.7"/>
	<circle class="st19" cx="286.6" cy="229.7" r="4.7"/>
	<circle class="st20" cx="272.4" cy="229.7" r="4.7"/>
	<g>
		<path class="st8" d="M157.9,317.6c-0.6,0-1-0.4-1-1v-46.8c0-0.6,0.4-1,1-1h161.5c0.6,0,1,0.4,1,1v46.8c0,0.6-0.4,1-1,1H157.9z"/>
		<path class="st19" d="M319.4,269.8v46.8H157.9v-46.8H319.4 M319.4,267.8H157.9c-1.1,0-2,0.9-2,2v46.8c0,1.1,0.9,2,2,2h161.5
			c1.1,0,2-0.9,2-2v-46.8C321.4,268.7,320.5,267.8,319.4,267.8L319.4,267.8z"/>
	</g>
	<circle class="st19" cx="300.7" cy="282.9" r="4.7"/>
	<circle class="st19" cx="286.6" cy="282.9" r="4.7"/>
	<circle class="st20" cx="272.4" cy="282.9" r="4.7"/>
	<g>
		<path class="st8" d="M157.9,370.7c-0.6,0-1-0.4-1-1v-46.8c0-0.6,0.4-1,1-1h161.5c0.6,0,1,0.4,1,1v46.8c0,0.6-0.4,1-1,1H157.9z"/>
		<path class="st19" d="M319.4,322.9v46.8H157.9v-46.8H319.4 M319.4,320.9H157.9c-1.1,0-2,0.9-2,2v46.8c0,1.1,0.9,2,2,2h161.5
			c1.1,0,2-0.9,2-2v-46.8C321.4,321.8,320.5,320.9,319.4,320.9L319.4,320.9z"/>
	</g>
	<g>
		<rect x="169.2" y="332.7" class="st19" width="6.6" height="27.3"/>
	</g>
	<g>
		<rect x="182.7" y="332.7" class="st19" width="6.6" height="27.3"/>
	</g>
	<g>
		<rect x="196.2" y="332.7" class="st19" width="6.6" height="27.3"/>
	</g>
	<g>
		<rect x="169.2" y="279.6" class="st19" width="6.6" height="27.3"/>
	</g>
	<g>
		<rect x="182.7" y="279.6" class="st19" width="6.6" height="27.3"/>
	</g>
	<g>
		<rect x="196.2" y="279.6" class="st19" width="6.6" height="27.3"/>
	</g>
	<g>
		<rect x="169.2" y="226.4" class="st19" width="6.6" height="27.3"/>
	</g>
	<g>
		<rect x="182.7" y="226.4" class="st19" width="6.6" height="27.3"/>
	</g>
	<g>
		<rect x="196.2" y="226.4" class="st19" width="6.6" height="27.3"/>
	</g>
	<g>
		<rect x="169.2" y="173.3" class="st19" width="6.6" height="27.3"/>
	</g>
	<g>
		<rect x="182.7" y="173.3" class="st19" width="6.6" height="27.3"/>
	</g>
	<g>
		<rect x="196.2" y="173.3" class="st19" width="6.6" height="27.3"/>
	</g>
	<circle class="st20" cx="479.7" cy="176.6" r="4.7"/>
	<circle class="st20" cx="465.7" cy="176.6" r="4.7"/>
	<circle class="st20" cx="451.5" cy="176.6" r="4.7"/>
	<circle class="st20" cx="479.8" cy="229.7" r="4.7"/>
	<circle class="st20" cx="465.8" cy="229.7" r="4.7"/>
	<circle class="st20" cx="451.6" cy="229.7" r="4.7"/>
	<g>
		<rect x="348.4" y="226.4" class="st20" width="6.6" height="27.3"/>
	</g>
	<g>
		<rect x="361.9" y="226.4" class="st20" width="6.6" height="27.3"/>
	</g>
	<g>
		<rect x="375.3" y="226.4" class="st20" width="6.6" height="27.3"/>
	</g>
	<g>
		<rect x="348.4" y="173.3" class="st20" width="6.6" height="27.3"/>
	</g>
	<g>
		<rect x="361.9" y="173.3" class="st20" width="6.6" height="27.3"/>
	</g>
	<g>
		<rect x="375.3" y="173.3" class="st20" width="6.6" height="27.3"/>
	</g>
	<circle class="st19" cx="300.8" cy="336" r="4.7"/>
	<circle class="st19" cx="286.7" cy="336" r="4.7"/>
	<circle class="st20" cx="272.5" cy="336" r="4.7"/>
	<rect x="247.7" y="368.9" class="st5" width="62.2" height="3.1"/>
	<path class="st22" d="M504,376H152c-2.2,0-4-1.8-4-4l0,0c0-2.2,1.8-4,4-4h352c2.2,0,4,1.8,4,4l0,0C508,374.2,506.2,376,504,376z"/>
	<path class="st22" d="M136,376h-24c-2.2,0-4-1.8-4-4v0c0-2.2,1.8-4,4-4h24c2.2,0,4,1.8,4,4v0C140,374.2,138.2,376,136,376z"/>
	<path class="st22" d="M544,376h-24c-2.2,0-4-1.8-4-4v0c0-2.2,1.8-4,4-4h24c2.2,0,4,1.8,4,4v0C548,374.2,546.2,376,544,376z"/>
	<path class="st22" d="M96,376h-8c-2.2,0-4-1.8-4-4v0c0-2.2,1.8-4,4-4h8c2.2,0,4,1.8,4,4v0C100,374.2,98.2,376,96,376z"/>
	<path class="st22" d="M568,376h-8c-2.2,0-4-1.8-4-4v0c0-2.2,1.8-4,4-4h8c2.2,0,4,1.8,4,4v0C572,374.2,570.2,376,568,376z"/>
	<rect x="972.4" y="368.9" class="st5" width="62.2" height="3.1"/>
	<g>
		<rect x="888.9" y="201.9" class="st26" width="327.3" height="168.6"/>
		<polygon class="st26" points="1052.5,302.9 888.9,201.9 1216.2,201.9 		"/>
	</g>
	<path class="st27" d="M1134.3,283.1c7.2,0,13-5.8,13-13h-26C1121.3,277.3,1127.1,283.1,1134.3,283.1z M1173.3,250.6
		c0-6.2,0-32.5,0-32.5c0-20-10.6-36.6-29.2-41V173c0-5-3.7-9.4-8.7-9.9c-5.9-0.6-10.8,3.9-10.8,9.7v4.4c-18.6,4.4-29.2,21.1-29.2,41
		c0,0,0,26.2,0,32.5c0,6.2-13,13-13,15.9c0,2.9,0,3.6,0,3.6h103.9c0,0,0-0.2,0-3.6C1186.2,263.2,1173.3,256.8,1173.3,250.6z"/>
	<g>
		<path class="st22" d="M1228.6,376h-352c-2.2,0-4-1.8-4-4l0,0c0-2.2,1.8-4,4-4h352c2.2,0,4,1.8,4,4l0,0
			C1232.6,374.2,1230.8,376,1228.6,376z"/>
		<path class="st22" d="M860.6,376h-24c-2.2,0-4-1.8-4-4v0c0-2.2,1.8-4,4-4h24c2.2,0,4,1.8,4,4v0C864.6,374.2,862.8,376,860.6,376z"
			/>
		<path class="st22" d="M1268.6,376h-24c-2.2,0-4-1.8-4-4v0c0-2.2,1.8-4,4-4h24c2.2,0,4,1.8,4,4v0
			C1272.6,374.2,1270.8,376,1268.6,376z"/>
		<path class="st22" d="M820.6,376h-8c-2.2,0-4-1.8-4-4v0c0-2.2,1.8-4,4-4h8c2.2,0,4,1.8,4,4v0C824.6,374.2,822.8,376,820.6,376z"/>
		<path class="st22" d="M1292.6,376h-8c-2.2,0-4-1.8-4-4v0c0-2.2,1.8-4,4-4h8c2.2,0,4,1.8,4,4v0C1296.6,374.2,1294.8,376,1292.6,376
			z"/>
	</g>
	<path class="st19" d="M1103.3,171l-5.2-5.2c-1-1-2.7-1.1-3.8-0.2c-13.7,11.3-22.9,27.7-24.6,46.4c-0.2,1.7,1.2,3.1,2.8,3.1h7.4
		c1.5,0,2.7-1.1,2.8-2.5c1.6-15.1,9.2-28.3,20.4-37.3C1104.4,174.1,1104.5,172.1,1103.3,171z"/>
	<path class="st19" d="M1188.8,215h7.4c1.7,0,3-1.4,2.8-3.1c-1.7-18.7-10.9-35.1-24.6-46.4c-1.1-0.9-2.8-0.8-3.8,0.2l-5.2,5.2
		c-1.2,1.2-1.1,3.1,0.2,4.2c11.2,9,18.8,22.3,20.4,37.3C1186.1,213.9,1187.3,215,1188.8,215z"/>
</g>
<g id="Layer_6">
</g>
<g id="Layer_4">
</g>
<g id="Layer_7">
	<g>
		<g>
			<path class="st28" d="M-46.7-642.9c4.2-2.2,9.3-0.5,11.5,3.7c2.2,4.2,0.5,9.3-3.7,11.5c-4.2,2.2-9.3,0.5-11.5-3.7
				S-50.8-640.7-46.7-642.9 M-51.3-652c-9.2,4.7-12.8,16.1-8.1,25.3c4.7,9.2,16.1,12.8,25.3,8.1c9.2-4.7,12.8-16.1,8.1-25.3
				C-30.8-653.1-42.1-656.7-51.3-652L-51.3-652z"/>
			<g>
				
					<rect x="-34" y="-661.7" transform="matrix(0.8894 -0.4572 0.4572 0.8894 300.0351 -73.2033)" class="st28" width="65.5" height="10.2"/>
			</g>
			<g>
				
					<rect x="18.8" y="-664" transform="matrix(0.8894 -0.4572 0.4572 0.8894 303.8843 -61.9378)" class="st28" width="10.2" height="10.2"/>
			</g>
		</g>
		<g>
			<path class="st12" d="M-41-615.3c-1.3-0.3-1.8-0.2-2.1-0.2c-1.2-0.3-1.5-0.1-2-0.2c-0.6-0.1-0.7-0.5-1.7-0.7
				c-1.3-0.3,0.2-0.6,0.2-0.6l5.2,0.4l0.5,0.9l0.2,0.1C-40.7-615.8-40.9-615.3-41-615.3z"/>
			<path class="st29" d="M-31.6-620.6c5.6-4,5.6-3.8,9-4.4c2.1-0.4,1.8-8.3,4.1-13.8c0.8-2.1,1.5-1.8,2.8-4.1
				c0.5-0.8,3.5-3.1,3.5-3.1s0.6,1.8,0.4,2.5c-1.6,7.2-3.4,10.6-3.8,11.8c-3.6,10.4-1.2,8.3-5.3,10c-1.2,0.5-12.8,4.7-14.5,5.4
				c-1.1,0.4-0.7-0.1-4.6,0.7c-0.5,0.1-0.9,0.3-1,0.1c-0.5-0.6-2.5-1.3-2.6-1.7c-0.1-0.6,0.6-0.7,1-1.6c0.4-0.8,0.6-1.2,0.7-0.7
				c0.1,0.6-0.1,1-0.2,1.2c-0.6,1,0.1,0.7,0.7,1.2c0.3,0.2,0.5,0.2,0.6,0.2c1.5-0.4,1.9-1.6,3.9-1.4
				C-34.5-617.9-34.7-618.4-31.6-620.6z"/>
			<path class="st29" d="M-2.3-577.3c1.3,1.9,6.7,4.8,8.4,7.4c3.5,5.3,5.3,15.6,7.8,19.2c2.1,3,3.6,2.3,4.2,3.1
				c0.3,0.4,0.1,1.3-0.3,2.1c-0.5,1.1-1,1.1-1.5,3.7c-0.5,2.6-1.1,4.3-1.8,4.9c-0.6,0.5-2.6,1.6-2,0.4c0.7-1.3,0.4-2.4,0.7-4.3
				c0.3-1.9,0.3-4.4-0.6-5.9c-4.5-7.2-13-20.4-22.7-29.3c-2.2-2-8.3-24.3-8.1-26.1c0.2-1.8,13.4-7.8,13.5-6.7
				C-3.2-589.8-4.9-581.1-2.3-577.3z"/>
			<path class="st30" d="M-9.1-618.3c0.5,2.9,3.7,6.8,4.3,9.2c0.6,2.5-0.1,5.6-1.6,8.4c-1.9,3.4-11.1,21.3-10.8,26
				c0.2,3.9,2.8,6.1,2.7,10.7c-0.1,8.1-4.1,17.7-3.4,24.2c0.2,1.7,0.9,1.8,1.9,2.8c0.8,0.8-0.3,1.9-1.7,2.9
				c-0.6,0.4-2.6,1.7-3.7,2.6c-1.3,1-1.7,1.9-2.8,2.2c-1.3,0.4-2.8,0.4-3.4,0.1c-0.4-0.2-0.1-0.6,0.3-0.7c2-0.7,2.8-2.3,3.9-3.7
				c0.3-0.4,1-1,1.7-2.5c1.7-3.8-1.9-34.3-2.8-38.6c-0.9-4.3,0.7-14.2,2.2-26.1c1.1-8.4,1.3-11.2,2.2-16c3.3-16-5.5-11.2-3.2-17.9
				c1.1-3.3,8.8-11.4,9.9-12.4c1.2-1,6,0.6,6,0.6s1.6,4.7,1.3,8.1C-6.9-629.6-10.2-624.1-9.1-618.3z"/>
			<g>
				<path class="st30" d="M-10-670.7c-4.8-0.8-8.2,1.4-10.3,7.2c-1.3,3.7-1.3,11.7,1.8,12.3c1.3,0.2,4.4,0.1,5.6,0.6
					c1.4,0.6-0.1,3-0.4,3.6c-0.3,0.5,6.3,1.5,6,0.6c-0.4-1.2-0.8-4.9-0.5-6.4c0.4-1.9,1.9-4.3,2.8-5.9C-2-664.3-4.3-669.8-10-670.7z
					"/>
			</g>
			<g>
				<path class="st31" d="M-4.9-580.6c2.2,0.1,6.6-1.6,9.2-3.8c-2.2-2.8-5.9-19-7.9-25.2c-1.3-4.1-5-5.8-5.5-8.6
					c-1.1-5.8,2.2-11.2,3.1-20c0.4-3.5-1.3-8.1-1.3-8.1s-4.9-1.6-6-0.6c-1.2,1-8.8,9.1-9.9,12.4c-2.3,6.7,6.2,1.7,2.9,17.8
					c-1,4.8-1.6,7.9-3.2,16.2c-0.2,1-1.1,5.9-1.4,7.9c-0.8,4.9-1.2,7.4-1.6,10.5c1.7,2,8.1,3.7,11.2,2.6c1-0.4,4.1-1.8,5.2-2.2
					C-6.4-583.2-7.9-580.7-4.9-580.6z"/>
				<path class="st31" d="M15.8-546.7c0-0.9-0.1-1.4,0.1-2.1c0.7,0.2,1.9,0.7,2.2,1.1c0.3,0.4,0.1,1.3-0.3,2.1
					c-0.5,1.1-1,1.1-1.5,3.7c-0.5,2.9-0.8,4.1-1.8,4.9c-0.9,0.7-2.3,1.5-2.2,0.7c0-0.3,0.5-2.7,0.8-4.6
					C14.5-542.1,16-544,15.8-546.7z"/>
				<path class="st31" d="M-17.4-538.4c0.1,0,1.2,0.9,1.7,1.4c0.5,0.5-0.1,1.7-1.9,2.9c-0.6,0.4-2.5,1.7-3.6,2.6
					c-1.3,1-1.8,1.9-2.9,2.2c-1.3,0.4-2.8,0.4-3.4,0.1c-0.4-0.2-0.2-0.4,0.1-0.7c1.6-1.4,2.4-2.1,3.7-3.3
					C-17.8-534.2-18.5-537.4-17.4-538.4z"/>
			</g>
			<path class="st29" d="M7.3-607.1c0.5,0,1.2-0.2,1.6-0.3c0.9-0.2,0.7-0.1,1.2,0.6c0.4,0.5,1,1.2,1.3,1.3c0.3,0.1-1.7-0.1-1.7-0.1
				S7-607.1,7.3-607.1z"/>
			<path class="st30" d="M-0.3-620.7c1.4,3.4,2.5,9.6,4.5,12.5c0.9,1.3,2.2,1.1,3.5,1c1-0.1,2.7,1.9,4.6,1.7c0.3,0,0.3,0.5-1,0.7
				c-1.1,0.1-1.8-0.5-3.8-0.4c-1.1,0.1-1.7,0.3-1.7,0.6c-0.1,0.4,0.6,0.7,1.1,0.9c0.6,0.3,1,1.9,0.2,1.2c-0.6-0.5-1-0.7-1.4-0.9
				c-0.9-0.4-1.3-0.6-1.6-0.8c-0.6-0.3-2.7-3.4-2.8-3.9c-0.3-0.7-7.5-12.5-8.1-13.5c-1.9-3.7-2.7-10.7-5.8-14.4
				c-1.1-1.4-0.1-8.3,1.8-8.6c2-0.4,4.7,1.7,4.9,4.6c0.3,3.6,0.5,4.7,2.2,13C-3.3-625-1.2-622.9-0.3-620.7z"/>
			<path class="st32" d="M-12.4-671.1c-3,0.2-6.6,1.8-6.9,3.6c-0.4,2.2,1.9,6.5,4.7,6.6c0,0,1.1-2.4,2.3-2.3
				c1.2,0.1,1.9,1.1,1.5,3.3c-0.1,0.9-1.5,2.7-2.1,2.2c-0.7-0.6-3,1.4-1.7,3.8c2,3.9-2.8,2.2-3.4,4.8c-0.4,2.2,2.9,3.1,6.4,4
				c7.5,2,8.1,3.3,6.4,6c1.2-1.7,4-1.9,2.7-3.1c-1.1-1,1.6-3,3.5-4.6c4.5-3.7-6.2-4.9-4.4-14.5C-1.7-669.5-9.1-671.3-12.4-671.1z"/>
		</g>
	</g>
</g>
<g id="Layer_5" class="st0">
	<circle class="st33" cx="-410.5" cy="-219.9" r="210.3"/>
	<path class="st34" d="M-851.2-287.3c-20.9,0-37.9,17-37.9,37.9v35.1h76.3v-34.6C-812.8-270.1-830-287.3-851.2-287.3z"/>
	<path class="st35" d="M-506.6-247.3c0-20.9,17-37.9,37.9-37.9c21.1,0,38.4,17.2,38.4,38.4v34.6h23.9v-34.6
		c0-34.4-27.9-62.3-62.3-62.3c-34.1,0-61.9,27.8-61.9,61.9v35.1h23.9V-247.3z"/>
	<g class="st36">
		<polygon class="st37" points="-407.7,-210.3 -431.4,-210.3 -507,-210.3 -530.7,-210.3 -545.3,-210.3 -545.3,-94.5 -393.1,-94.5 
			-393.1,-210.3 		"/>
	</g>
	<path class="st38" d="M-449.2-163.1c0-10.7-8.6-19.3-19.3-19.3c-10.7,0-19.3,8.6-19.3,19.3c0,8,4.9,14.8,11.8,17.8l-1.6,20.7h18.2
		l-1.6-20.7C-454-148.3-449.2-155.1-449.2-163.1z"/>
	<path class="st39" d="M-234.5-86.5h-352c-2.2,0-4-1.8-4-4v0c0-2.2,1.8-4,4-4h352c2.2,0,4,1.8,4,4v0
		C-230.5-88.3-232.3-86.5-234.5-86.5z"/>
	<path class="st39" d="M-602.5-86.5h-24c-2.2,0-4-1.8-4-4v0c0-2.2,1.8-4,4-4h24c2.2,0,4,1.8,4,4v0
		C-598.5-88.3-600.3-86.5-602.5-86.5z"/>
	<path class="st39" d="M-194.5-86.5h-24c-2.2,0-4-1.8-4-4v0c0-2.2,1.8-4,4-4h24c2.2,0,4,1.8,4,4v0
		C-190.5-88.3-192.3-86.5-194.5-86.5z"/>
	<path class="st39" d="M-642.5-86.5h-8c-2.2,0-4-1.8-4-4v0c0-2.2,1.8-4,4-4h8c2.2,0,4,1.8,4,4v0C-638.5-88.3-640.3-86.5-642.5-86.5z
		"/>
	<path class="st39" d="M-170.5-86.5h-8c-2.2,0-4-1.8-4-4v0c0-2.2,1.8-4,4-4h8c2.2,0,4,1.8,4,4v0C-166.5-88.3-168.3-86.5-170.5-86.5z
		"/>
</g>
</svg>
