<?xml version="1.0" encoding="utf-8"?>
<!-- Generator: Adobe Illustrator 21.1.0, SVG Export Plug-In . SVG Version: 6.00 Build 0)  -->
<svg version="1.1" xmlns="http://www.w3.org/2000/svg" xmlns:xlink="http://www.w3.org/1999/xlink" x="0px" y="0px"
	 viewBox="0 0 656 376" style="enable-background:new 0 0 656 376;" xml:space="preserve">
<style type="text/css">
	.st0{display:none;}
	.st1{display:inline;opacity:0.16;fill:#39B54A;}
	.st2{fill:#F4FAFF;}
	.st3{fill:#E3F5FF;}
	.st4{fill:#FFFFFF;}
	.st5{opacity:8.000000e-02;}
	.st6{opacity:0.48;}
	.st7{fill:#22B573;}
	.st8{fill:#F2F2F2;}
	.st9{fill:#999999;}
	.st10{fill:#29ABE2;}
	.st11{opacity:0.16;}
	.st12{fill:#B3B3B3;}
	.st13{fill:#F0F8F1;}
	.st14{fill:#75C594;}
	.st15{fill:#00A775;}
	.st16{fill:none;}
	.st17{fill:none;stroke:#333333;stroke-width:4;stroke-miterlimit:10;}
	.st18{fill:#46BF5B;stroke:#333333;stroke-width:4;stroke-linejoin:round;stroke-miterlimit:10;}
	.st19{fill:#666666;}
	.st20{fill:#CCCCCC;}
	.st21{opacity:0.56;fill:#333333;}
	.st22{fill:#333333;}
	.st23{fill:#009245;}
	.st24{fill:#E9C6B5;}
	.st25{fill:#FFD9C3;}
	.st26{fill:#0071BC;}
	.st27{fill:#534741;}
	.st28{display:inline;opacity:8.000000e-02;fill:#46BF5B;}
	.st29{display:inline;fill:none;}
	.st30{display:inline;fill:#FFCBB0;}
	.st31{display:inline;}
	.st32{fill:#F6B254;}
	.st33{display:inline;fill:#F46F24;}
	.st34{display:inline;fill:#333333;}
</style>
<g id="Layer_2" class="st0">
</g>
<g id="Layer_3">
</g>
<g id="Layer_1">
	<g>
		<path class="st8" d="M498.5,212.3H337c-1.1,0-2-0.9-2-2v-46.8c0-1.1,0.9-2,2-2h161.5c1.1,0,2,0.9,2,2v46.8
			C500.5,211.4,499.6,212.3,498.5,212.3z"/>
		<path class="st9" d="M498.5,161.5h-8c-0.6,0-1,0.4-1,1s0.4,1,1,1h8c0.6,0,1-0.4,1-1C499.5,162,499.1,161.5,498.5,161.5
			C498.5,161.5,498.5,161.5,498.5,161.5L498.5,161.5z M482.5,161.5h-8c-0.6,0-1,0.4-1,1s0.4,1,1,1h8c0.6,0,1-0.4,1-1
			S483.1,161.5,482.5,161.5L482.5,161.5z M466.5,161.5h-8c-0.6,0-1,0.4-1,1s0.4,1,1,1h8c0.6,0,1-0.4,1-1S467.1,161.5,466.5,161.5
			L466.5,161.5z M450.5,161.5h-8c-0.6,0-1,0.4-1,1s0.4,1,1,1h8c0.6,0,1-0.4,1-1S451.1,161.5,450.5,161.5L450.5,161.5z M434.5,161.5
			h-8c-0.6,0-1,0.4-1,1s0.4,1,1,1h8c0.6,0,1-0.4,1-1S435.1,161.5,434.5,161.5L434.5,161.5z M418.5,161.5h-8c-0.6,0-1,0.4-1,1
			s0.4,1,1,1h8c0.6,0,1-0.4,1-1S419.1,161.5,418.5,161.5L418.5,161.5z M402.5,161.5h-8c-0.6,0-1,0.4-1,1s0.4,1,1,1h8
			c0.6,0,1-0.4,1-1S403.1,161.5,402.5,161.5L402.5,161.5z M386.5,161.5h-8c-0.6,0-1,0.4-1,1s0.4,1,1,1h8c0.6,0,1-0.4,1-1
			S387.1,161.5,386.5,161.5L386.5,161.5z M370.5,161.5h-8c-0.6,0-1,0.4-1,1s0.4,1,1,1h8c0.6,0,1-0.4,1-1S371.1,161.5,370.5,161.5
			L370.5,161.5z M354.5,161.5h-8c-0.6,0-1,0.4-1,1s0.4,1,1,1h8c0.6,0,1-0.4,1-1S355.1,161.5,354.5,161.5L354.5,161.5z M338.5,161.5
			H337l0,0c-2,2-2,5.4-2,5.4c0,0.6,0.4,1,1,1s1-0.4,1-1v-3.4h1.5c0.6,0,1-0.4,1-1S339.1,161.5,338.5,161.5L338.5,161.5z M336,173.9
			c-0.6,0-1,0.4-1,1v8c0,0.6,0.4,1,1,1s1-0.4,1-1v-8C337,174.4,336.6,173.9,336,173.9L336,173.9z M336,189.9c-0.6,0-1,0.4-1,1v8
			c0,0.6,0.4,1,1,1s1-0.4,1-1v-8C337,190.4,336.6,189.9,336,189.9L336,189.9z M336,205.9c-0.6,0-1,0.4-1,1v3.4c2,2,3.4,2,3.4,2
			c0.6,0,1-0.4,1-1s-0.4-1-1-1H337v-3.4C337,206.4,336.6,205.9,336,205.9L336,205.9z M354.5,210.3h-8c-0.6,0-1,0.4-1,1s0.4,1,1,1h8
			c0.6,0,1-0.4,1-1S355,210.3,354.5,210.3L354.5,210.3z M370.5,210.3h-8c-0.6,0-1,0.4-1,1s0.4,1,1,1h8c0.6,0,1-0.4,1-1
			S371,210.3,370.5,210.3L370.5,210.3z M386.5,210.3h-8c-0.6,0-1,0.4-1,1s0.4,1,1,1h8c0.6,0,1-0.4,1-1S387,210.3,386.5,210.3
			L386.5,210.3z M402.5,210.3h-8c-0.6,0-1,0.4-1,1s0.4,1,1,1h8c0.6,0,1-0.4,1-1S403,210.3,402.5,210.3L402.5,210.3z M418.5,210.3h-8
			c-0.6,0-1,0.4-1,1s0.4,1,1,1h8c0.6,0,1-0.4,1-1S419,210.3,418.5,210.3L418.5,210.3z M434.5,210.3h-8c-0.6,0-1,0.4-1,1s0.4,1,1,1h8
			c0.6,0,1-0.4,1-1S435,210.3,434.5,210.3L434.5,210.3z M450.5,210.3h-8c-0.6,0-1,0.4-1,1s0.4,1,1,1h8c0.6,0,1-0.4,1-1
			S451,210.3,450.5,210.3L450.5,210.3z M466.5,210.3h-8c-0.6,0-1,0.4-1,1s0.4,1,1,1h8c0.6,0,1-0.4,1-1S467,210.3,466.5,210.3
			L466.5,210.3z M482.5,210.3h-8c-0.6,0-1,0.4-1,1s0.4,1,1,1h8c0.6,0,1-0.4,1-1S483,210.3,482.5,210.3L482.5,210.3z M498.5,210.3h-8
			c-0.6,0-1,0.4-1,1s0.4,1,1,1h8c0.6,0,1-0.4,1-1S499,210.3,498.5,210.3L498.5,210.3z M499.5,196.5c-0.6,0-1,0.4-1,1v8
			c0,0.6,0.4,1,1,1s1-0.4,1-1v-8C500.5,196.9,500.1,196.5,499.5,196.5L499.5,196.5z M499.5,180.5c-0.6,0-1,0.4-1,1v8
			c0,0.6,0.4,1,1,1s1-0.4,1-1v-8C500.5,180.9,500.1,180.5,499.5,180.5L499.5,180.5z M499.5,164.5c-0.6,0-1,0.4-1,1v8
			c0,0.6,0.4,1,1,1s1-0.4,1-1v-8C500.5,164.9,500.1,164.5,499.5,164.5L499.5,164.5z"/>
	</g>
	<g>
		<path class="st8" d="M498.5,265.5H337c-1.1,0-2-0.9-2-2v-46.8c0-1.1,0.9-2,2-2h161.5c1.1,0,2,0.9,2,2v46.8
			C500.5,264.6,499.6,265.5,498.5,265.5z"/>
		<path class="st9" d="M498.5,214.7h-8c-0.6,0-1,0.4-1,1s0.4,1,1,1h8c0.6,0,1-0.4,1-1C499.5,215.1,499.1,214.7,498.5,214.7
			C498.5,214.7,498.5,214.7,498.5,214.7L498.5,214.7z M482.5,214.7h-8c-0.6,0-1,0.4-1,1s0.4,1,1,1h8c0.6,0,1-0.4,1-1
			S483.1,214.7,482.5,214.7L482.5,214.7z M466.5,214.7h-8c-0.6,0-1,0.4-1,1s0.4,1,1,1h8c0.6,0,1-0.4,1-1S467.1,214.7,466.5,214.7
			L466.5,214.7z M450.5,214.7h-8c-0.6,0-1,0.4-1,1s0.4,1,1,1h8c0.6,0,1-0.4,1-1S451.1,214.7,450.5,214.7L450.5,214.7z M434.5,214.7
			h-8c-0.6,0-1,0.4-1,1s0.4,1,1,1h8c0.6,0,1-0.4,1-1S435.1,214.7,434.5,214.7L434.5,214.7z M418.5,214.7h-8c-0.6,0-1,0.4-1,1
			s0.4,1,1,1h8c0.6,0,1-0.4,1-1S419.1,214.7,418.5,214.7L418.5,214.7z M402.5,214.7h-8c-0.6,0-1,0.4-1,1s0.4,1,1,1h8
			c0.6,0,1-0.4,1-1S403.1,214.7,402.5,214.7L402.5,214.7z M386.5,214.7h-8c-0.6,0-1,0.4-1,1s0.4,1,1,1h8c0.6,0,1-0.4,1-1
			S387.1,214.7,386.5,214.7L386.5,214.7z M370.5,214.7h-8c-0.6,0-1,0.4-1,1s0.4,1,1,1h8c0.6,0,1-0.4,1-1S371.1,214.7,370.5,214.7
			L370.5,214.7z M354.5,214.7h-8c-0.6,0-1,0.4-1,1s0.4,1,1,1h8c0.6,0,1-0.4,1-1S355.1,214.7,354.5,214.7L354.5,214.7z M338.5,214.7
			H337l0,0c-2,2-2,5.4-2,5.4c0,0.6,0.4,1,1,1s1-0.4,1-1v-3.4h1.5c0.6,0,1-0.4,1-1S339.1,214.7,338.5,214.7L338.5,214.7z M336,227
			c-0.6,0-1,0.4-1,1v8c0,0.6,0.4,1,1,1s1-0.4,1-1v-8C337,227.5,336.6,227,336,227L336,227z M336,243c-0.6,0-1,0.4-1,1v8
			c0,0.6,0.4,1,1,1s1-0.4,1-1v-8C337,243.5,336.6,243,336,243L336,243z M336,259c-0.6,0-1,0.4-1,1v3.4c2,2,3.4,2,3.4,2
			c0.6,0,1-0.4,1-1s-0.4-1-1-1H337V260C337,259.5,336.6,259,336,259L336,259z M354.5,263.5h-8c-0.6,0-1,0.4-1,1s0.4,1,1,1h8
			c0.6,0,1-0.4,1-1S355,263.5,354.5,263.5L354.5,263.5z M370.5,263.5h-8c-0.6,0-1,0.4-1,1s0.4,1,1,1h8c0.6,0,1-0.4,1-1
			S371,263.5,370.5,263.5L370.5,263.5z M386.5,263.5h-8c-0.6,0-1,0.4-1,1s0.4,1,1,1h8c0.6,0,1-0.4,1-1S387,263.5,386.5,263.5
			L386.5,263.5z M402.5,263.5h-8c-0.6,0-1,0.4-1,1s0.4,1,1,1h8c0.6,0,1-0.4,1-1S403,263.5,402.5,263.5L402.5,263.5z M418.5,263.5h-8
			c-0.6,0-1,0.4-1,1s0.4,1,1,1h8c0.6,0,1-0.4,1-1S419,263.5,418.5,263.5L418.5,263.5z M434.5,263.5h-8c-0.6,0-1,0.4-1,1s0.4,1,1,1h8
			c0.6,0,1-0.4,1-1S435,263.5,434.5,263.5L434.5,263.5z M450.5,263.5h-8c-0.6,0-1,0.4-1,1s0.4,1,1,1h8c0.6,0,1-0.4,1-1
			S451,263.5,450.5,263.5L450.5,263.5z M466.5,263.5h-8c-0.6,0-1,0.4-1,1s0.4,1,1,1h8c0.6,0,1-0.4,1-1S467,263.5,466.5,263.5
			L466.5,263.5z M482.5,263.5h-8c-0.6,0-1,0.4-1,1s0.4,1,1,1h8c0.6,0,1-0.4,1-1S483,263.5,482.5,263.5L482.5,263.5z M498.5,263.5h-8
			c-0.6,0-1,0.4-1,1s0.4,1,1,1h8c0.6,0,1-0.4,1-1S499,263.5,498.5,263.5L498.5,263.5z M499.5,249.6c-0.6,0-1,0.4-1,1v8
			c0,0.6,0.4,1,1,1s1-0.4,1-1v-8C500.5,250.1,500.1,249.6,499.5,249.6L499.5,249.6z M499.5,233.6c-0.6,0-1,0.4-1,1v8
			c0,0.6,0.4,1,1,1s1-0.4,1-1v-8C500.5,234.1,500.1,233.6,499.5,233.6L499.5,233.6z M499.5,217.6c-0.6,0-1,0.4-1,1v8
			c0,0.6,0.4,1,1,1s1-0.4,1-1v-8C500.5,218.1,500.1,217.6,499.5,217.6L499.5,217.6z"/>
	</g>
	<g>
		<path class="st8" d="M337,317.6c-0.6,0-1-0.4-1-1v-46.8c0-0.6,0.4-1,1-1h161.5c0.6,0,1,0.4,1,1v46.8c0,0.6-0.4,1-1,1H337z"/>
		<path class="st19" d="M498.5,269.8v46.8H337v-46.8H498.5 M498.5,267.8H337c-1.1,0-2,0.9-2,2v46.8c0,1.1,0.9,2,2,2h161.5
			c1.1,0,2-0.9,2-2v-46.8C500.5,268.7,499.6,267.8,498.5,267.8L498.5,267.8z"/>
	</g>
	<circle class="st19" cx="479.8" cy="282.9" r="4.7"/>
	<circle class="st19" cx="465.8" cy="282.9" r="4.7"/>
	<circle class="st20" cx="451.6" cy="282.9" r="4.7"/>
	<g>
		<path class="st8" d="M337,370.7c-0.6,0-1-0.4-1-1v-46.8c0-0.6,0.4-1,1-1h161.5c0.6,0,1,0.4,1,1v46.8c0,0.6-0.4,1-1,1H337z"/>
		<path class="st19" d="M498.5,322.9v46.8H337v-46.8H498.5 M498.5,320.9H337c-1.1,0-2,0.9-2,2v46.8c0,1.1,0.9,2,2,2h161.5
			c1.1,0,2-0.9,2-2v-46.8C500.5,321.8,499.6,320.9,498.5,320.9L498.5,320.9z"/>
	</g>
	<g>
		<rect x="348.4" y="332.7" class="st19" width="6.6" height="27.3"/>
	</g>
	<g>
		<rect x="361.9" y="332.7" class="st19" width="6.6" height="27.3"/>
	</g>
	<g>
		<rect x="375.3" y="332.7" class="st19" width="6.6" height="27.3"/>
	</g>
	<g>
		<rect x="348.4" y="279.6" class="st19" width="6.6" height="27.3"/>
	</g>
	<g>
		<rect x="361.9" y="279.6" class="st19" width="6.6" height="27.3"/>
	</g>
	<g>
		<rect x="375.3" y="279.6" class="st19" width="6.6" height="27.3"/>
	</g>
	<circle class="st19" cx="479.9" cy="336" r="4.7"/>
	<circle class="st19" cx="465.9" cy="336" r="4.7"/>
	<circle class="st20" cx="451.6" cy="336" r="4.7"/>
	<g>
		<path class="st8" d="M157.9,211.3c-0.6,0-1-0.4-1-1v-46.8c0-0.6,0.4-1,1-1h161.5c0.6,0,1,0.4,1,1v46.8c0,0.6-0.4,1-1,1H157.9z"/>
		<path class="st19" d="M319.4,163.5v46.8H157.9v-46.8H319.4 M319.4,161.5H157.9c-1.1,0-2,0.9-2,2v46.8c0,1.1,0.9,2,2,2h161.5
			c1.1,0,2-0.9,2-2v-46.8C321.4,162.4,320.5,161.5,319.4,161.5L319.4,161.5z"/>
	</g>
	<circle class="st19" cx="300.6" cy="176.6" r="4.7"/>
	<circle class="st19" cx="286.5" cy="176.6" r="4.7"/>
	<circle class="st20" cx="272.3" cy="176.6" r="4.7"/>
	<g>
		<path class="st8" d="M157.9,264.5c-0.6,0-1-0.4-1-1v-46.8c0-0.6,0.4-1,1-1h161.5c0.6,0,1,0.4,1,1v46.8c0,0.6-0.4,1-1,1H157.9z"/>
		<path class="st19" d="M319.4,216.7v46.8H157.9v-46.8H319.4 M319.4,214.7H157.9c-1.1,0-2,0.9-2,2v46.8c0,1.1,0.9,2,2,2h161.5
			c1.1,0,2-0.9,2-2v-46.8C321.4,215.6,320.5,214.7,319.4,214.7L319.4,214.7z"/>
	</g>
	<circle class="st19" cx="300.7" cy="229.7" r="4.7"/>
	<circle class="st19" cx="286.6" cy="229.7" r="4.7"/>
	<circle class="st20" cx="272.4" cy="229.7" r="4.7"/>
	<g>
		<path class="st8" d="M157.9,317.6c-0.6,0-1-0.4-1-1v-46.8c0-0.6,0.4-1,1-1h161.5c0.6,0,1,0.4,1,1v46.8c0,0.6-0.4,1-1,1H157.9z"/>
		<path class="st19" d="M319.4,269.8v46.8H157.9v-46.8H319.4 M319.4,267.8H157.9c-1.1,0-2,0.9-2,2v46.8c0,1.1,0.9,2,2,2h161.5
			c1.1,0,2-0.9,2-2v-46.8C321.4,268.7,320.5,267.8,319.4,267.8L319.4,267.8z"/>
	</g>
	<circle class="st19" cx="300.7" cy="282.9" r="4.7"/>
	<circle class="st19" cx="286.6" cy="282.9" r="4.7"/>
	<circle class="st20" cx="272.4" cy="282.9" r="4.7"/>
	<g>
		<path class="st8" d="M157.9,370.7c-0.6,0-1-0.4-1-1v-46.8c0-0.6,0.4-1,1-1h161.5c0.6,0,1,0.4,1,1v46.8c0,0.6-0.4,1-1,1H157.9z"/>
		<path class="st19" d="M319.4,322.9v46.8H157.9v-46.8H319.4 M319.4,320.9H157.9c-1.1,0-2,0.9-2,2v46.8c0,1.1,0.9,2,2,2h161.5
			c1.1,0,2-0.9,2-2v-46.8C321.4,321.8,320.5,320.9,319.4,320.9L319.4,320.9z"/>
	</g>
	<g>
		<rect x="169.2" y="332.7" class="st19" width="6.6" height="27.3"/>
	</g>
	<g>
		<rect x="182.7" y="332.7" class="st19" width="6.6" height="27.3"/>
	</g>
	<g>
		<rect x="196.2" y="332.7" class="st19" width="6.6" height="27.3"/>
	</g>
	<g>
		<rect x="169.2" y="279.6" class="st19" width="6.6" height="27.3"/>
	</g>
	<g>
		<rect x="182.7" y="279.6" class="st19" width="6.6" height="27.3"/>
	</g>
	<g>
		<rect x="196.2" y="279.6" class="st19" width="6.6" height="27.3"/>
	</g>
	<g>
		<rect x="169.2" y="226.4" class="st19" width="6.6" height="27.3"/>
	</g>
	<g>
		<rect x="182.7" y="226.4" class="st19" width="6.6" height="27.3"/>
	</g>
	<g>
		<rect x="196.2" y="226.4" class="st19" width="6.6" height="27.3"/>
	</g>
	<g>
		<rect x="169.2" y="173.3" class="st19" width="6.6" height="27.3"/>
	</g>
	<g>
		<rect x="182.7" y="173.3" class="st19" width="6.6" height="27.3"/>
	</g>
	<g>
		<rect x="196.2" y="173.3" class="st19" width="6.6" height="27.3"/>
	</g>
	<circle class="st20" cx="479.7" cy="176.6" r="4.7"/>
	<circle class="st20" cx="465.7" cy="176.6" r="4.7"/>
	<circle class="st20" cx="451.5" cy="176.6" r="4.7"/>
	<circle class="st20" cx="479.8" cy="229.7" r="4.7"/>
	<circle class="st20" cx="465.8" cy="229.7" r="4.7"/>
	<circle class="st20" cx="451.6" cy="229.7" r="4.7"/>
	<g>
		<rect x="348.4" y="226.4" class="st20" width="6.6" height="27.3"/>
	</g>
	<g>
		<rect x="361.9" y="226.4" class="st20" width="6.6" height="27.3"/>
	</g>
	<g>
		<rect x="375.3" y="226.4" class="st20" width="6.6" height="27.3"/>
	</g>
	<g>
		<rect x="348.4" y="173.3" class="st20" width="6.6" height="27.3"/>
	</g>
	<g>
		<rect x="361.9" y="173.3" class="st20" width="6.6" height="27.3"/>
	</g>
	<g>
		<rect x="375.3" y="173.3" class="st20" width="6.6" height="27.3"/>
	</g>
	<circle class="st19" cx="300.8" cy="336" r="4.7"/>
	<circle class="st19" cx="286.7" cy="336" r="4.7"/>
	<circle class="st20" cx="272.5" cy="336" r="4.7"/>
	<rect x="247.7" y="368.9" class="st5" width="62.2" height="3.1"/>
	<path class="st22" d="M504,376H152c-2.2,0-4-1.8-4-4l0,0c0-2.2,1.8-4,4-4h352c2.2,0,4,1.8,4,4l0,0C508,374.2,506.2,376,504,376z"/>
	<path class="st22" d="M136,376h-24c-2.2,0-4-1.8-4-4v0c0-2.2,1.8-4,4-4h24c2.2,0,4,1.8,4,4v0C140,374.2,138.2,376,136,376z"/>
	<path class="st22" d="M544,376h-24c-2.2,0-4-1.8-4-4v0c0-2.2,1.8-4,4-4h24c2.2,0,4,1.8,4,4v0C548,374.2,546.2,376,544,376z"/>
	<path class="st22" d="M96,376h-8c-2.2,0-4-1.8-4-4v0c0-2.2,1.8-4,4-4h8c2.2,0,4,1.8,4,4v0C100,374.2,98.2,376,96,376z"/>
	<path class="st22" d="M568,376h-8c-2.2,0-4-1.8-4-4v0c0-2.2,1.8-4,4-4h8c2.2,0,4,1.8,4,4v0C572,374.2,570.2,376,568,376z"/>
</g>
<g id="Layer_6">
</g>
<g id="Layer_4">
</g>
<g id="Layer_7">
</g>
<g id="Layer_5" class="st0">
</g>
</svg>
